<svg xmlns="http://www.w3.org/2000/svg" xmlns:xlink="http://www.w3.org/1999/xlink" id="Capa_1" width="1400" height="980" x="0" y="0" enable-background="new 0 0 1400 980" version="1.1" viewBox="0 0 1400 980" xml:space="preserve"><g><defs><rect id="SVGID_1_" width="1400" height="980"/></defs><clipPath id="SVGID_2_"><use overflow="visible" xlink:href="#SVGID_1_"/></clipPath><linearGradient id="SVGID_3_" x1="700" x2="700" y1="0" y2="980" gradientUnits="userSpaceOnUse"><stop offset="0" style="stop-color:#cfffff"/><stop offset=".042" style="stop-color:#d6ffff"/><stop offset=".177" style="stop-color:#e8ffff"/><stop offset=".339" style="stop-color:#f5ffff"/><stop offset=".55" style="stop-color:#fdffff"/><stop offset="1" style="stop-color:#fff"/></linearGradient><rect width="1400" height="980" fill="url(#SVGID_3_)" clip-path="url(#SVGID_2_)"/><path fill="#FFEBFE" d="M443.575,217.956c3.798-6.937,9.895-12.436,17.27-15.464 c2.177-10.161,11.205-17.781,22.017-17.781c4.044,0,7.836,1.071,11.117,2.938c2.065-5.476,7.351-9.372,13.549-9.372 c2.169,0,4.224,0.48,6.071,1.335c1.932-6.06,7.605-10.45,14.305-10.45c8.292,0,15.014,6.722,15.014,15.014 c0,1.948-0.375,3.807-1.05,5.514c3.078-1.472,6.525-2.297,10.165-2.297c11.705,0,21.418,8.525,23.272,19.704 c2.522-0.553,5.14-0.847,7.828-0.847c10.569,0,20.083,4.509,26.728,11.707H443.575z" clip-path="url(#SVGID_2_)"/><g clip-path="url(#SVGID_2_)"><rect width="10.996" height="91.518" x="476.219" y="207.147" fill="#4A7F7E"/><rect width="62.852" height="10.996" x="450.292" y="226.201" fill="#4A7F7E"/></g><g clip-path="url(#SVGID_2_)"><rect width="10.996" height="91.518" x="912.779" y="207.147" fill="#4A7F7E"/><rect width="62.852" height="10.996" x="886.851" y="226.201" fill="#4A7F7E"/></g><g clip-path="url(#SVGID_2_)"><rect width="16.938" height="140.97" x="683.062" y="113.512" fill="#4A7F7E"/><rect width="96.814" height="16.938" x="643.124" y="142.862" fill="#4A7F7E"/></g><circle cx="1185.033" cy="304.852" r="120.855" fill="#FFEBFE" clip-path="url(#SVGID_2_)"/><polyline fill="#B2F9F2" points="1.085 451 53 336.713 109 430.744 150.246 399.446 180.533 440.943 227 363.208 276.46 429 382.523 237 504.693 451 939.356 451 939.356 313.268 985.221 237 1062.412 335.365 1107.479 292.073 1261 430.744 1343.98 261 1400 347.465 1721 897.144 -357 855" clip-path="url(#SVGID_2_)"/><g clip-path="url(#SVGID_2_)"><rect width="7.841" height="28.547" x="130.632" y="510.434" fill="#C9ADC7"/><rect width="3.921" height="28.547" x="134.553" y="510.434" fill="#AD93AC"/><polygon fill="#4A7F7E" points="149.146 509.073 144.203 509.073 149.146 518.948 144.203 518.948 149.146 528.255 119.959 528.255 124.902 518.948 119.959 518.948 124.902 509.073 119.959 509.073 125.483 499.198 119.959 499.198 131.197 486.227 134.553 482.352 149.146 499.198 143.62 499.198"/><polygon fill="#5DA3A3" points="142.433 509.073 137.49 509.073 142.433 518.948 137.49 518.948 142.433 528.255 119.959 528.255 124.902 518.948 119.959 518.948 124.902 509.073 119.959 509.073 125.483 499.198 119.959 499.198 131.197 486.227 142.433 499.198 136.909 499.198"/></g><g clip-path="url(#SVGID_2_)"><rect width="5.203" height="18.94" x="261.422" y="475.632" fill="#C9ADC7"/><rect width="2.601" height="18.94" x="264.023" y="475.632" fill="#AD93AC"/><polygon fill="#4A7F7E" points="273.706 474.728 270.426 474.728 273.706 481.28 270.426 481.28 273.706 487.455 254.341 487.455 257.621 481.28 254.341 481.28 257.621 474.728 254.341 474.728 258.006 468.176 254.341 468.176 261.797 459.571 264.024 457 273.706 468.176 270.04 468.176"/><polygon fill="#5DA3A3" points="269.252 474.728 265.972 474.728 269.252 481.28 265.972 481.28 269.252 487.455 254.341 487.455 257.621 481.28 254.341 481.28 257.621 474.728 254.341 474.728 258.006 468.176 254.341 468.176 261.797 459.571 269.252 468.176 265.587 468.176"/></g><g clip-path="url(#SVGID_2_)"><rect width="5.509" height="20.055" x="1098.724" y="449.948" fill="#C9ADC7"/><rect width="2.754" height="20.055" x="1101.479" y="449.948" fill="#AD93AC"/><polygon fill="#4A7F7E" points="1111.731 448.991 1108.259 448.991 1111.731 455.929 1108.259 455.929 1111.731 462.468 1091.227 462.468 1094.699 455.929 1091.227 455.929 1094.699 448.991 1091.227 448.991 1095.107 442.054 1091.227 442.054 1099.122 432.941 1101.479 430.219 1111.731 442.054 1107.849 442.054"/><polygon fill="#5DA3A3" points="1107.015 448.991 1103.542 448.991 1107.015 455.929 1103.542 455.929 1107.015 462.468 1091.227 462.468 1094.699 455.929 1091.227 455.929 1094.699 448.991 1091.227 448.991 1095.107 442.054 1091.227 442.054 1099.122 432.941 1107.015 442.054 1103.134 442.054"/></g><g clip-path="url(#SVGID_2_)"><rect width="5.509" height="20.055" x="1023.851" y="379.391" fill="#C9ADC7"/><rect width="2.754" height="20.055" x="1026.605" y="379.391" fill="#AD93AC"/><polygon fill="#4A7F7E" points="1036.858 378.434 1033.385 378.434 1036.858 385.371 1033.385 385.371 1036.858 391.91 1016.353 391.91 1019.826 385.371 1016.353 385.371 1019.826 378.434 1016.353 378.434 1020.234 371.496 1016.353 371.496 1024.248 362.384 1026.606 359.662 1036.858 371.496 1032.976 371.496"/><polygon fill="#5DA3A3" points="1032.142 378.434 1028.669 378.434 1032.142 385.371 1028.669 385.371 1032.142 391.91 1016.353 391.91 1019.826 385.371 1016.353 385.371 1019.826 378.434 1016.353 378.434 1020.234 371.496 1016.353 371.496 1024.248 362.384 1032.142 371.496 1028.261 371.496"/></g><g clip-path="url(#SVGID_2_)"><rect width="5.203" height="18.94" x="59.466" y="463.046" fill="#C9ADC7"/><rect width="2.601" height="18.94" x="62.067" y="463.046" fill="#AD93AC"/><polygon fill="#4A7F7E" points="71.75 462.142 68.47 462.142 71.75 468.694 68.47 468.694 71.75 474.869 52.385 474.869 55.665 468.694 52.385 468.694 55.665 462.142 52.385 462.142 56.05 455.591 52.385 455.591 59.841 446.985 62.067 444.414 71.75 455.591 68.083 455.591"/><polygon fill="#5DA3A3" points="67.296 462.142 64.016 462.142 67.296 468.694 64.016 468.694 67.296 474.869 52.385 474.869 55.665 468.694 52.385 468.694 55.665 462.142 52.385 462.142 56.05 455.591 52.385 455.591 59.841 446.985 67.296 455.591 63.631 455.591"/></g><g clip-path="url(#SVGID_2_)"><rect width="5.509" height="20.055" x="162.634" y="501.714" fill="#C9ADC7"/><rect width="2.754" height="20.055" x="165.389" y="501.714" fill="#AD93AC"/><polygon fill="#4A7F7E" points="175.641 500.758 172.169 500.758 175.641 507.695 172.169 507.695 175.641 514.234 155.137 514.234 158.609 507.695 155.137 507.695 158.609 500.758 155.137 500.758 159.018 493.82 155.137 493.82 163.032 484.708 165.389 481.986 175.641 493.82 171.759 493.82"/><polygon fill="#5DA3A3" points="170.925 500.758 167.453 500.758 170.925 507.695 167.453 507.695 170.925 514.234 155.137 514.234 158.609 507.695 155.137 507.695 158.609 500.758 155.137 500.758 159.018 493.82 155.137 493.82 163.032 484.708 170.925 493.82 167.045 493.82"/></g><path fill="#9DEAE4" d="M1.085,532.611l60.982-56.722l103.322,84.145L262.98,490l41.813,19.556 l62.309-96.179l159.616,119.234h357.278l140.987-140.987l77.577,77.577l132.488-132.488l202.564,202.564l-452.391,257.96 c0,0-1210.221,50.539-1216.221,46.151" clip-path="url(#SVGID_2_)"/><g clip-path="url(#SVGID_2_)"><rect width="5.509" height="20.055" x="258.515" y="558.71" fill="#C9ADC7"/><rect width="2.754" height="20.055" x="261.269" y="558.71" fill="#AD93AC"/><polygon fill="#4A7F7E" points="271.522 557.753 268.049 557.753 271.522 564.691 268.049 564.691 271.522 571.229 251.017 571.229 254.49 564.691 251.017 564.691 254.49 557.753 251.017 557.753 254.898 550.816 251.017 550.816 258.912 541.703 261.269 538.981 271.522 550.816 267.639 550.816"/><polygon fill="#5DA3A3" points="266.806 557.753 263.333 557.753 266.806 564.691 263.333 564.691 266.806 571.229 251.017 571.229 254.49 564.691 251.017 564.691 254.49 557.753 251.017 557.753 254.898 550.816 251.017 550.816 258.912 541.703 266.806 550.816 262.925 550.816"/></g><g clip-path="url(#SVGID_2_)"><rect width="7.893" height="28.734" x="1248.578" y="553.818" fill="#C9ADC7"/><rect width="3.946" height="28.734" x="1252.524" y="553.818" fill="#AD93AC"/><polygon fill="#4A7F7E" points="1267.214 552.447 1262.238 552.447 1267.214 562.387 1262.238 562.387 1267.214 571.756 1237.835 571.756 1242.811 562.387 1237.835 562.387 1242.811 552.447 1237.835 552.447 1243.395 542.508 1237.835 542.508 1249.147 529.452 1252.524 525.552 1267.214 542.508 1261.651 542.508"/><polygon fill="#5DA3A3" points="1260.457 552.447 1255.481 552.447 1260.457 562.387 1255.481 562.387 1260.457 571.756 1237.835 571.756 1242.811 562.387 1237.835 562.387 1242.811 552.447 1237.835 552.447 1243.395 542.508 1237.835 542.508 1249.147 529.452 1260.457 542.508 1254.896 542.508"/></g><g clip-path="url(#SVGID_2_)"><rect width="6.37" height="23.189" x="1270.83" y="548.629" fill="#C9ADC7"/><rect width="3.185" height="23.189" x="1274.015" y="548.629" fill="#AD93AC"/><polygon fill="#4A7F7E" points="1285.87 547.523 1281.854 547.523 1285.87 555.545 1281.854 555.545 1285.87 563.105 1262.161 563.105 1266.176 555.545 1262.161 555.545 1266.176 547.523 1262.161 547.523 1266.648 539.502 1262.161 539.502 1271.289 528.965 1274.015 525.818 1285.87 539.502 1281.381 539.502"/><polygon fill="#5DA3A3" points="1280.417 547.523 1276.401 547.523 1280.417 555.545 1276.401 555.545 1280.417 563.105 1262.161 563.105 1266.176 555.545 1262.161 555.545 1266.176 547.523 1262.161 547.523 1266.648 539.502 1262.161 539.502 1271.289 528.965 1280.417 539.502 1275.929 539.502"/></g><polyline fill="#8BD8D4" points="1.085 619.401 166.042 518.498 261.594 576.947 312.606 545.743 527.661 677.29 932.555 677.29 1170.652 531.648 1252.596 581.772 1517.118 419.966 1517.118 1007 -149 1007" clip-path="url(#SVGID_2_)"/><polygon fill="#4A7F7E" points="1121.556 681.222 700 681.222 278.444 681.222 0 980 700 980 1400 980" clip-path="url(#SVGID_2_)"/><g clip-path="url(#SVGID_2_)"><polygon fill="#4A7F7E" points="912.499 383.8 470.563 383.8 655.037 218.384 691.517 185.667"/><polygon fill="#5DA3A3" points="883.995 384.113 470.563 384.113 675.848 200.033"/><rect width="108.556" height="297.222" x="535.995" y="384" fill="#FFEBFE"/><rect width="108.556" height="297.222" x="644.551" y="384" fill="#FFEBFE"/><rect width="111.267" height="297.222" x="753.106" y="384" fill="#FFEBFE"/><rect width="28.556" height="52.444" x="580.336" y="628.778" fill="#C9ADC7"/><rect width="28.556" height="52.444" x="774.171" y="628.778" fill="#C9ADC7"/><rect width="30.256" height="52.444" x="578.635" y="545.889" fill="#C9ADC7"/><rect width="30.256" height="52.444" x="774.171" y="545.889" fill="#C9ADC7"/><rect width="75" height="69.556" x="654.031" y="611.667" fill="#C9ADC7"/><rect width="73.942" height="69.556" x="654.56" y="441.111" fill="#C9ADC7"/><g><g><rect width="108.296" height="13.333" x="534.666" y="598.333" fill="#5DA3A3"/><rect width="108.296" height="13.333" x="534.666" y="561" fill="#5DA3A3"/><rect width="11.32" height="42.667" x="534.667" y="564.667" fill="#5DA3A3"/><rect width="11.32" height="42.667" x="558.91" y="564.667" fill="#5DA3A3"/><rect width="11.32" height="42.667" x="583.154" y="564.667" fill="#5DA3A3"/><rect width="11.32" height="42.667" x="607.398" y="564.667" fill="#5DA3A3"/><rect width="11.32" height="42.667" x="631.642" y="564.667" fill="#5DA3A3"/></g><g><rect width="108.296" height="13.333" x="631.642" y="598.333" fill="#5DA3A3"/><rect width="108.296" height="13.333" x="631.642" y="561" fill="#5DA3A3"/><rect width="11.32" height="42.667" x="631.642" y="564.667" fill="#5DA3A3"/><rect width="11.32" height="42.667" x="655.886" y="564.667" fill="#5DA3A3"/><rect width="11.32" height="42.667" x="680.13" y="564.667" fill="#5DA3A3"/><rect width="11.32" height="42.667" x="704.374" y="564.667" fill="#5DA3A3"/><rect width="11.32" height="42.667" x="728.618" y="564.667" fill="#5DA3A3"/></g><g><rect width="108.296" height="13.333" x="728.618" y="598.333" fill="#5DA3A3"/><rect width="108.296" height="13.333" x="728.618" y="561" fill="#5DA3A3"/><rect width="11.32" height="42.667" x="728.618" y="564.667" fill="#5DA3A3"/><rect width="11.32" height="42.667" x="752.862" y="564.667" fill="#5DA3A3"/><rect width="11.32" height="42.667" x="777.106" y="564.667" fill="#5DA3A3"/><rect width="11.32" height="42.667" x="801.35" y="564.667" fill="#5DA3A3"/><rect width="11.32" height="42.667" x="825.594" y="564.667" fill="#5DA3A3"/></g></g><g><rect width="108.556" height="380.222" x="427.44" y="301" fill="#FFEBFE"/><rect width="27.139" height="380.222" x="508.856" y="301" fill="#C9ADC7"/><polygon fill="#4A7F7E" points="562.765 325 400.675 325 468.335 264.33 481.715 252.33"/><polygon fill="#5DA3A3" points="535.995 325 400.675 325 468.335 264.33"/><circle cx="481.717" cy="384" r="45" fill="#C9ADC7"/><circle cx="481.717" cy="384" r="36.535" fill="#4A7F7E"/><rect width="28.556" height="52.444" x="467.44" y="628.778" fill="#C9ADC7"/><rect width="28.556" height="52.444" x="467.44" y="545.889" fill="#C9ADC7"/><g><rect width="133.889" height="13.333" x="414.773" y="598.333" fill="#5DA3A3"/><rect width="133.889" height="13.333" x="414.773" y="561" fill="#5DA3A3"/><rect width="13.995" height="42.667" x="414.773" y="564.667" fill="#5DA3A3"/><rect width="13.995" height="42.667" x="444.746" y="564.667" fill="#5DA3A3"/><rect width="13.995" height="42.667" x="474.72" y="564.667" fill="#5DA3A3"/><rect width="13.995" height="42.667" x="504.693" y="564.667" fill="#5DA3A3"/><rect width="13.995" height="42.667" x="534.667" y="564.667" fill="#5DA3A3"/></g><rect width="28.556" height="52.444" x="467.44" y="457.111" fill="#C9ADC7"/><g><rect width="133.889" height="13.333" x="414.773" y="509.556" fill="#5DA3A3"/><rect width="133.889" height="13.333" x="414.773" y="472.222" fill="#5DA3A3"/><rect width="13.995" height="42.667" x="414.773" y="475.889" fill="#5DA3A3"/><rect width="13.995" height="42.667" x="444.746" y="475.889" fill="#5DA3A3"/><rect width="13.995" height="42.667" x="474.72" y="475.889" fill="#5DA3A3"/><rect width="13.995" height="42.667" x="504.693" y="475.889" fill="#5DA3A3"/><rect width="13.995" height="42.667" x="534.667" y="475.889" fill="#5DA3A3"/></g><polyline fill="none" stroke="#5DA3A3" stroke-miterlimit="10" stroke-width="5" points="481.717 363.208 481.717 386.673 466.519 399.446"/></g><circle cx="691.531" cy="313.268" r="52.268" fill="#4A7F7E"/><polyline fill="none" stroke="#5DA3A3" stroke-miterlimit="10" stroke-width="5" points="691.531 283.522 691.531 317.093 669.788 335.365"/><path fill="#C9ADC7" d="M593.763,404.377c-16.084,0-29.123,13.039-29.123,29.123v23.611h58.246V433.5 C622.886,417.416,609.848,404.377,593.763,404.377z"/><path fill="#C9ADC7" d="M789.299,404.377c-16.084,0-29.123,13.039-29.123,29.123v23.611h58.246V433.5 C818.422,417.416,805.383,404.377,789.299,404.377z"/><g><circle cx="594.695" cy="445.971" r="5.029" fill="#5DA3A3"/><path fill="#4A7F7E" d="M607.353,436.548h-0.024v-10.375c0-7.013-5.641-12.704-12.633-12.793v-0.004 c-0.027,0-0.055,0.002-0.082,0.002c-0.027,0-0.055-0.002-0.082-0.002v0.004c-1.111,0.014-2.188,0.171-3.214,0.451 c5.428,1.481,9.419,6.444,9.419,12.342v10.375h0.024c0,5.204,4.219,9.423,9.423,9.423h6.591 C611.571,445.971,607.353,441.753,607.353,436.548z"/><path fill="#5DA3A3" d="M600.762,436.548h-0.024v-10.375c0-5.898-3.991-10.861-9.419-12.342 c-5.428,1.481-9.419,6.444-9.419,12.342v10.375h-0.024c0,5.204-4.219,9.423-9.423,9.423h15.489h0.164h6.427h0.164h15.489 C604.98,445.971,600.762,441.753,600.762,436.548z"/></g><g><circle cx="789.362" cy="445.971" r="5.029" fill="#5DA3A3"/><path fill="#4A7F7E" d="M802.019,436.548h-0.024v-10.375c0-7.013-5.641-12.704-12.633-12.793v-0.004 c-0.027,0-0.055,0.002-0.082,0.002c-0.027,0-0.055-0.002-0.082-0.002v0.004c-1.111,0.014-2.188,0.171-3.214,0.451 c5.428,1.481,9.419,6.444,9.419,12.342v10.375h0.024c0,5.204,4.219,9.423,9.423,9.423h6.591 C806.238,445.971,802.019,441.753,802.019,436.548z"/><path fill="#5DA3A3" d="M795.428,436.548h-0.024v-10.375c0-5.898-3.991-10.861-9.419-12.342 c-5.428,1.481-9.419,6.444-9.419,12.342v10.375h-0.024c0,5.204-4.219,9.423-9.423,9.423h15.489h0.164h6.427h0.164h15.489 C799.647,445.971,795.428,441.753,795.428,436.548z"/></g><rect width="27.139" height="297.222" x="837.235" y="384" fill="#C9ADC7"/><g><rect width="27.139" height="297.222" x="864.027" y="384" fill="#C9ADC7"/><rect width="108.556" height="380.222" x="863.999" y="301" fill="#FFEBFE"/><rect width="27.139" height="380.222" x="945.416" y="301" fill="#C9ADC7"/><polygon fill="#4A7F7E" points="999.325 325 837.235 325 904.895 264.33 918.275 252.33"/><polygon fill="#5DA3A3" points="972.555 325 837.235 325 904.895 264.33"/><circle cx="918.277" cy="384" r="45" fill="#C9ADC7"/><circle cx="918.277" cy="384" r="36.535" fill="#4A7F7E"/><rect width="28.556" height="52.444" x="903.999" y="628.778" fill="#C9ADC7"/><rect width="28.556" height="52.444" x="903.999" y="545.889" fill="#C9ADC7"/><g><rect width="166.221" height="13.333" x="819" y="598.333" fill="#5DA3A3"/><rect width="159.628" height="13.333" x="825.594" y="561" fill="#5DA3A3"/><rect width="13.995" height="42.667" x="851.333" y="564.667" fill="#5DA3A3"/><rect width="13.995" height="42.667" x="881.306" y="564.667" fill="#5DA3A3"/><rect width="13.995" height="42.667" x="911.279" y="564.667" fill="#5DA3A3"/><rect width="13.995" height="42.667" x="941.253" y="564.667" fill="#5DA3A3"/><rect width="13.995" height="42.667" x="971.226" y="564.667" fill="#5DA3A3"/></g><rect width="28.556" height="52.444" x="903.999" y="457.111" fill="#C9ADC7"/><g><rect width="133.889" height="13.333" x="851.333" y="509.556" fill="#5DA3A3"/><rect width="133.889" height="13.333" x="851.333" y="472.222" fill="#5DA3A3"/><rect width="13.995" height="42.667" x="851.333" y="475.889" fill="#5DA3A3"/><rect width="13.995" height="42.667" x="881.306" y="475.889" fill="#5DA3A3"/><rect width="13.995" height="42.667" x="911.279" y="475.889" fill="#5DA3A3"/><rect width="13.995" height="42.667" x="941.253" y="475.889" fill="#5DA3A3"/><rect width="13.995" height="42.667" x="971.226" y="475.889" fill="#5DA3A3"/></g><polyline fill="none" stroke="#5DA3A3" stroke-miterlimit="10" stroke-width="5" points="918.277 363.208 918.277 386.673 903.079 399.446"/></g><g><g><rect width="118.477" height="13.333" x="534.666" y="509.556" fill="#5DA3A3"/><rect width="118.477" height="13.333" x="534.666" y="472.222" fill="#5DA3A3"/><rect width="12.384" height="42.667" x="534.667" y="475.889" fill="#5DA3A3"/><rect width="12.384" height="42.667" x="561.19" y="475.889" fill="#5DA3A3"/><rect width="12.384" height="42.667" x="587.713" y="475.889" fill="#5DA3A3"/><rect width="12.384" height="42.667" x="614.236" y="475.889" fill="#5DA3A3"/><rect width="12.384" height="42.667" x="640.759" y="475.889" fill="#5DA3A3"/></g><g><rect width="118.477" height="13.333" x="640.759" y="509.556" fill="#5DA3A3"/><rect width="118.477" height="13.333" x="640.759" y="472.222" fill="#5DA3A3"/><rect width="12.384" height="42.667" x="640.759" y="475.889" fill="#5DA3A3"/><rect width="12.384" height="42.667" x="667.282" y="475.889" fill="#5DA3A3"/><rect width="12.384" height="42.667" x="693.805" y="475.889" fill="#5DA3A3"/><rect width="12.384" height="42.667" x="720.328" y="475.889" fill="#5DA3A3"/><rect width="12.384" height="42.667" x="746.851" y="475.889" fill="#5DA3A3"/></g><g><rect width="118.477" height="13.333" x="746.851" y="509.556" fill="#5DA3A3"/><rect width="118.477" height="13.333" x="746.851" y="472.222" fill="#5DA3A3"/><rect width="12.384" height="42.667" x="746.851" y="475.889" fill="#5DA3A3"/><rect width="12.384" height="42.667" x="773.374" y="475.889" fill="#5DA3A3"/><rect width="12.384" height="42.667" x="799.898" y="475.889" fill="#5DA3A3"/><rect width="12.384" height="42.667" x="826.421" y="475.889" fill="#5DA3A3"/><rect width="12.384" height="42.667" x="852.944" y="475.889" fill="#5DA3A3"/></g></g></g><g clip-path="url(#SVGID_2_)"><rect width="17.329" height="63.085" x="373.858" y="618.137" fill="#C9ADC7"/><rect width="8.664" height="63.085" x="382.522" y="618.137" fill="#AD93AC"/><polygon fill="#4A7F7E" points="414.773 615.128 403.849 615.128 414.773 636.95 403.849 636.95 414.773 657.519 350.273 657.519 361.197 636.95 350.273 636.95 361.197 615.128 350.273 615.128 362.48 593.305 350.273 593.305 375.108 564.641 382.523 556.079 414.773 593.305 402.561 593.305"/><polygon fill="#5DA3A3" points="399.938 615.128 389.014 615.128 399.938 636.95 389.014 636.95 399.938 657.519 350.273 657.519 361.197 636.95 350.273 636.95 361.197 615.128 350.273 615.128 362.48 593.305 350.273 593.305 375.108 564.641 399.938 593.305 387.73 593.305"/></g><g clip-path="url(#SVGID_2_)"><rect width="13.186" height="48.002" x="335.969" y="633.221" fill="#C9ADC7"/><rect width="6.593" height="48.002" x="342.561" y="633.221" fill="#AD93AC"/><polygon fill="#4A7F7E" points="367.101 630.931 358.789 630.931 367.101 647.536 358.789 647.536 367.101 663.186 318.023 663.186 326.335 647.536 318.023 647.536 326.335 630.931 318.023 630.931 327.311 614.326 318.023 614.326 336.919 592.515 342.562 586 367.101 614.326 357.809 614.326"/><polygon fill="#5DA3A3" points="355.813 630.931 347.501 630.931 355.813 647.536 347.501 647.536 355.813 663.186 318.023 663.186 326.335 647.536 318.023 647.536 326.335 630.931 318.023 630.931 327.311 614.326 318.023 614.326 336.919 592.515 355.813 614.326 346.524 614.326"/></g><g clip-path="url(#SVGID_2_)"><rect width="17.329" height="63.085" x="1041.057" y="618.137" fill="#C9ADC7"/><rect width="8.664" height="63.085" x="1049.721" y="618.137" fill="#AD93AC"/><polygon fill="#4A7F7E" points="1081.972 615.128 1071.048 615.128 1081.972 636.95 1071.048 636.95 1081.972 657.519 1017.472 657.519 1028.396 636.95 1017.472 636.95 1028.396 615.128 1017.472 615.128 1029.679 593.305 1017.472 593.305 1042.307 564.641 1049.722 556.079 1081.972 593.305 1069.76 593.305"/><polygon fill="#5DA3A3" points="1067.137 615.128 1056.213 615.128 1067.137 636.95 1056.213 636.95 1067.137 657.519 1017.472 657.519 1028.396 636.95 1017.472 636.95 1028.396 615.128 1017.472 615.128 1029.679 593.305 1017.472 593.305 1042.307 564.641 1067.137 593.305 1054.929 593.305"/></g><g clip-path="url(#SVGID_2_)"><rect width="13.186" height="48.002" x="1003.168" y="633.221" fill="#C9ADC7"/><rect width="6.593" height="48.002" x="1009.76" y="633.221" fill="#AD93AC"/><polygon fill="#4A7F7E" points="1034.3 630.931 1025.988 630.931 1034.3 647.536 1025.988 647.536 1034.3 663.186 985.221 663.186 993.534 647.536 985.221 647.536 993.534 630.931 985.221 630.931 994.51 614.326 985.221 614.326 1004.118 592.515 1009.761 586 1034.3 614.326 1025.008 614.326"/><polygon fill="#5DA3A3" points="1023.012 630.931 1014.7 630.931 1023.012 647.536 1014.7 647.536 1023.012 663.186 985.221 663.186 993.534 647.536 985.221 647.536 993.534 630.931 985.221 630.931 994.51 614.326 985.221 614.326 1004.118 592.515 1023.012 614.326 1013.723 614.326"/></g><g clip-path="url(#SVGID_2_)"><rect width="15.724" height="57.244" x="1083.814" y="623.979" fill="#C9ADC7"/><rect width="7.862" height="57.244" x="1091.676" y="623.979" fill="#AD93AC"/><polygon fill="#4A7F7E" points="1120.94 621.248 1111.028 621.248 1120.94 641.05 1111.028 641.05 1120.94 659.714 1062.412 659.714 1072.325 641.05 1062.412 641.05 1072.325 621.248 1062.412 621.248 1073.49 601.446 1062.412 601.446 1084.948 575.436 1091.676 567.667 1120.94 601.446 1109.859 601.446"/><polygon fill="#5DA3A3" points="1107.479 621.248 1097.566 621.248 1107.479 641.05 1097.566 641.05 1107.479 659.714 1062.412 659.714 1072.325 641.05 1062.412 641.05 1072.325 621.248 1062.412 621.248 1073.49 601.446 1062.412 601.446 1084.948 575.436 1107.479 601.446 1096.402 601.446"/></g><g clip-path="url(#SVGID_2_)"><rect width="60.573" height="220.517" x="1313.692" y="759.483" fill="#C9ADC7"/><rect width="30.287" height="220.517" x="1343.979" y="759.483" fill="#AD93AC"/><polygon fill="#4A7F7E" points="1456.712 748.964 1418.527 748.964 1456.712 825.245 1418.527 825.245 1456.712 897.144 1231.248 897.144 1269.434 825.245 1231.248 825.245 1269.434 748.964 1231.248 748.964 1273.921 672.683 1231.248 672.683 1318.059 572.485 1343.98 542.556 1456.712 672.683 1414.025 672.683"/><polygon fill="#5DA3A3" points="1404.856 748.964 1366.67 748.964 1404.856 825.245 1366.67 825.245 1404.856 897.144 1231.248 897.144 1269.434 825.245 1231.248 825.245 1269.434 748.964 1231.248 748.964 1273.921 672.683 1231.248 672.683 1318.059 572.485 1404.856 672.683 1362.183 672.683"/></g><g clip-path="url(#SVGID_2_)"><rect width="42.555" height="154.919" x="1209.97" y="825.081" fill="#C9ADC7"/><rect width="21.277" height="154.919" x="1231.247" y="825.081" fill="#AD93AC"/><polygon fill="#4A7F7E" points="1310.446 817.691 1283.619 817.691 1310.446 871.28 1283.619 871.28 1310.446 921.792 1152.051 921.792 1178.877 871.28 1152.051 871.28 1178.877 817.691 1152.051 817.691 1182.03 764.101 1152.051 764.101 1213.038 693.709 1231.248 672.683 1310.446 764.101 1280.456 764.101"/><polygon fill="#5DA3A3" points="1274.015 817.691 1247.189 817.691 1274.015 871.28 1247.189 871.28 1274.015 921.792 1152.051 921.792 1178.877 871.28 1152.051 871.28 1178.877 817.691 1152.051 817.691 1182.03 764.101 1152.051 764.101 1213.038 693.709 1274.015 764.101 1244.036 764.101"/></g><g clip-path="url(#SVGID_2_)"><g><rect width="37.526" height="136.612" x="248.316" y="843.388" fill="#C9ADC7"/><rect width="18.763" height="136.612" x="267.078" y="843.388" fill="#AD93AC"/><polygon fill="#4A7F7E" points="336.918 836.872 313.262 836.872 336.918 884.128 313.262 884.128 336.918 928.67 197.241 928.67 220.898 884.128 197.241 884.128 220.898 836.872 197.241 836.872 223.677 789.615 197.241 789.615 251.021 727.541 267.08 709 336.918 789.615 310.473 789.615"/><polygon fill="#5DA3A3" points="304.792 836.872 281.136 836.872 304.792 884.128 281.136 884.128 304.792 928.67 197.241 928.67 220.898 884.128 197.241 884.128 220.898 836.872 197.241 836.872 223.677 789.615 197.241 789.615 251.021 727.541 304.792 789.615 278.356 789.615"/></g><g><rect width="42.555" height="154.919" x="-1.978" y="825.081" fill="#C9ADC7"/><rect width="21.277" height="154.919" x="19.299" y="825.081" fill="#AD93AC"/><polygon fill="#4A7F7E" points="98.498 817.691 71.671 817.691 98.498 871.28 71.671 871.28 98.498 921.792 -59.897 921.792 -33.071 871.28 -59.897 871.28 -33.071 817.691 -59.897 817.691 -29.918 764.101 -59.897 764.101 1.09 693.709 19.3 672.683 98.498 764.101 68.509 764.101"/><polygon fill="#5DA3A3" points="62.067 817.691 35.241 817.691 62.067 871.28 35.241 871.28 62.067 921.792 -59.897 921.792 -33.071 871.28 -59.897 871.28 -33.071 817.691 -59.897 817.691 -29.918 764.101 -59.897 764.101 1.09 693.709 62.067 764.101 32.088 764.101"/></g><g><rect width="60.573" height="220.517" x="119.959" y="759.483" fill="#C9ADC7"/><rect width="30.287" height="220.517" x="150.246" y="759.483" fill="#AD93AC"/><polygon fill="#4A7F7E" points="262.98 748.964 224.794 748.964 262.98 825.245 224.794 825.245 262.98 897.144 37.516 897.144 75.701 825.245 37.516 825.245 75.701 748.964 37.516 748.964 80.188 672.683 37.516 672.683 124.327 572.485 150.248 542.556 262.98 672.683 220.292 672.683"/><polygon fill="#5DA3A3" points="211.123 748.964 172.938 748.964 211.123 825.245 172.938 825.245 211.123 897.144 37.516 897.144 75.701 825.245 37.516 825.245 75.701 748.964 37.516 748.964 80.188 672.683 37.516 672.683 124.327 572.485 211.123 672.683 168.45 672.683"/></g></g><path fill="#FFEBFE" d="M375.092,321.598c-2.607-4.761-6.792-8.536-11.854-10.614 c-1.495-6.975-7.691-12.205-15.112-12.205c-2.776,0-5.379,0.735-7.631,2.016c-1.417-3.759-5.045-6.433-9.3-6.433 c-1.488,0-2.899,0.33-4.167,0.916c-1.326-4.16-5.22-7.173-9.819-7.173c-5.692,0-10.306,4.614-10.306,10.305 c0,1.337,0.257,2.613,0.721,3.785c-2.113-1.01-4.479-1.577-6.978-1.577c-8.035,0-14.701,5.851-15.974,13.525 c-1.731-0.38-3.528-0.582-5.373-0.582c-7.254,0-13.785,3.095-18.346,8.036H375.092z" clip-path="url(#SVGID_2_)"/><path fill="#FFEBFE" d="M1317.743,161.51c-1.733-3.164-4.514-5.673-7.878-7.054 c-0.993-4.635-5.112-8.111-10.044-8.111c-1.845,0-3.575,0.489-5.071,1.34c-0.942-2.498-3.353-4.276-6.181-4.276 c-0.989,0-1.927,0.219-2.769,0.609c-0.881-2.764-3.469-4.767-6.526-4.767c-3.783,0-6.849,3.066-6.849,6.849 c0,0.888,0.171,1.737,0.479,2.516c-1.404-0.672-2.977-1.048-4.637-1.048c-5.34,0-9.771,3.889-10.617,8.989 c-1.15-0.252-2.345-0.387-3.571-0.387c-4.821,0-9.161,2.057-12.193,5.34H1317.743z" clip-path="url(#SVGID_2_)"/><path fill="#FFEBFE" d="M876.734,240.777c-1.733-3.164-4.514-5.673-7.878-7.054 c-0.993-4.635-5.112-8.111-10.044-8.111c-1.845,0-3.575,0.489-5.071,1.34c-0.942-2.498-3.353-4.275-6.181-4.275 c-0.989,0-1.927,0.219-2.769,0.609c-0.881-2.764-3.469-4.767-6.526-4.767c-3.783,0-6.849,3.066-6.849,6.849 c0,0.888,0.171,1.737,0.479,2.516c-1.404-0.672-2.977-1.048-4.637-1.048c-5.34,0-9.771,3.889-10.617,8.989 c-1.15-0.252-2.345-0.387-3.571-0.387c-4.821,0-9.162,2.057-12.193,5.34H876.734z" clip-path="url(#SVGID_2_)"/><path fill="#FFEBFE" d="M1319.219,227.3c1.367-2.497,3.562-4.476,6.217-5.567 c0.784-3.658,4.034-6.401,7.925-6.401c1.456,0,2.821,0.386,4.002,1.057c0.743-1.971,2.646-3.374,4.877-3.374 c0.781,0,1.52,0.173,2.185,0.48c0.695-2.181,2.738-3.762,5.149-3.762c2.985,0,5.405,2.42,5.405,5.404 c0,0.701-0.135,1.37-0.378,1.985c1.108-0.53,2.349-0.827,3.659-0.827c4.214,0,7.71,3.069,8.377,7.093 c0.908-0.199,1.85-0.305,2.818-0.305c3.804,0,7.229,1.623,9.621,4.214H1319.219z" clip-path="url(#SVGID_2_)"/><path fill="#FFEBFE" d="M123.954,384.113c-1.724-3.148-4.49-5.643-7.837-7.017 c-0.988-4.611-5.085-8.069-9.991-8.069c-1.835,0-3.556,0.486-5.045,1.333c-0.937-2.485-3.336-4.253-6.148-4.253 c-0.984,0-1.917,0.218-2.755,0.606c-0.877-2.75-3.451-4.742-6.492-4.742c-3.763,0-6.813,3.05-6.813,6.813 c0,0.884,0.17,1.727,0.476,2.502c-1.397-0.668-2.961-1.042-4.613-1.042c-5.312,0-9.719,3.868-10.561,8.942 c-1.144-0.251-2.333-0.384-3.552-0.384c-4.796,0-9.113,2.046-12.129,5.312H123.954z" clip-path="url(#SVGID_2_)"/><path fill="#FFF" d="M189,87.599c-2.929-5.349-7.63-9.59-13.318-11.925 c-1.679-7.836-8.641-13.712-16.978-13.712c-3.119,0-6.043,0.826-8.573,2.265C148.539,60.004,144.463,57,139.683,57 c-1.672,0-3.257,0.37-4.681,1.029c-1.49-4.673-5.865-8.059-11.032-8.059c-6.394,0-11.578,5.184-11.578,11.578 c0,1.502,0.289,2.935,0.81,4.252c-2.374-1.135-5.032-1.771-7.839-1.771c-9.027,0-16.516,6.574-17.946,15.195 c-1.945-0.427-3.964-0.653-6.036-0.653c-8.15,0-15.487,3.477-20.611,9.028H189z" clip-path="url(#SVGID_2_)"/><path fill="#FFF" d="M1081.972,103.057c-5.335-9.744-13.9-17.469-24.26-21.723 c-3.058-14.274-15.741-24.978-30.928-24.978c-5.681,0-11.008,1.505-15.616,4.127c-2.9-7.692-10.326-13.166-19.033-13.166 c-3.046,0-5.933,0.674-8.528,1.875c-2.714-8.513-10.683-14.68-20.095-14.68c-11.648,0-21.091,9.443-21.091,21.091 c0,2.736,0.527,5.347,1.475,7.746c-4.324-2.068-9.167-3.227-14.28-3.227c-16.443,0-30.087,11.975-32.691,27.679 c-3.542-0.777-7.221-1.19-10.996-1.19c-14.846,0-28.211,6.334-37.546,16.445H1081.972z" clip-path="url(#SVGID_2_)"/><path fill="#FFF" d="M305.445,332.49c1.696-3.097,4.417-5.552,7.71-6.903 c0.972-4.536,5.002-7.938,9.829-7.938c1.805,0,3.498,0.478,4.963,1.311c0.922-2.445,3.281-4.184,6.049-4.184 c0.968,0,1.886,0.214,2.71,0.596c0.862-2.705,3.395-4.665,6.386-4.665c3.702,0,6.703,3.001,6.703,6.703 c0,0.869-0.167,1.699-0.469,2.462c1.374-0.657,2.913-1.025,4.538-1.025c5.226,0,9.561,3.806,10.389,8.796 c1.126-0.247,2.295-0.378,3.495-0.378c4.718,0,8.965,2.013,11.932,5.226H305.445z" clip-path="url(#SVGID_2_)"/><path fill="#FFF" d="M1028.51,263.532c2.637-4.817,6.871-8.636,11.993-10.739 c1.512-7.056,7.781-12.348,15.289-12.348c2.808,0,5.442,0.744,7.72,2.04c1.434-3.803,5.104-6.508,9.409-6.508 c1.506,0,2.933,0.333,4.216,0.927c1.342-4.208,5.281-7.257,9.934-7.257c5.758,0,10.426,4.668,10.426,10.426 c0,1.352-0.26,2.643-0.729,3.829c2.138-1.022,4.531-1.595,7.059-1.595c8.129,0,14.873,5.92,16.161,13.683 c1.751-0.384,3.569-0.588,5.436-0.588c7.339,0,13.946,3.131,18.561,8.129H1028.51z" clip-path="url(#SVGID_2_)"/></g></svg>