<svg xmlns="http://www.w3.org/2000/svg" xmlns:xlink="http://www.w3.org/1999/xlink" id="Layer_1" width="1400" height="980" x="0" y="0" enable-background="new 0 0 1400 980" version="1.1" viewBox="0 0 1400 980" xml:space="preserve"><rect id="XMLID_55_" width="1400" height="980" x="0" fill="#F3EADB"/><path id="XMLID_27_" fill="#EEB765" d="M157,819.1c0,0,202-188.8,316.3-252.4s482,227.1,482,227.1l-781.7,27.1L157,819.1z"/><g id="XMLID_1_"><path id="XMLID_457_" fill="#C28849" d="M1214.1,817.6l-79.3-2.8l-569.8-20.1c0,0,169.3-136.8,266.9-173.1h0 c20.4-7.6,37.7-10.8,49.6-7.4C950.6,633.6,1214.1,817.6,1214.1,817.6z"/><path id="XMLID_453_" fill="#D69B61" d="M1214.1,817.6l-79.3-2.8C1029.7,707.3,892.4,645.4,832,621.6c20.4-7.6,37.7-10.8,49.6-7.4 C950.6,633.6,1214.1,817.6,1214.1,817.6z"/></g><g id="XMLID_36_"><ellipse id="XMLID_23_" cx="689.6" cy="830" fill="#F7C677" rx="558" ry="36.1"/><ellipse id="XMLID_454_" cx="601.4" cy="826.1" fill="#EEB765" rx="27.7" ry="9.2"/><ellipse id="XMLID_31_" cx="813.3" cy="834" fill="#EEB765" rx="12.2" ry="4"/><ellipse id="XMLID_456_" cx="969.9" cy="881.1" fill="#F7C677" rx="12.2" ry="4"/><ellipse id="XMLID_462_" cx="230.2" cy="881.1" fill="#F7C677" rx="12.2" ry="4"/><ellipse id="XMLID_463_" cx="1271.4" cy="856" fill="#F7C677" rx="12.2" ry="4"/><ellipse id="XMLID_461_" cx="187.5" cy="866.1" fill="#F7C677" rx="30.5" ry="10.1"/><ellipse id="XMLID_35_" cx="1154.6" cy="820.9" fill="#EEB765" rx="12.2" ry="4"/><ellipse id="XMLID_401_" cx="263.5" cy="820.9" fill="#EEB765" rx="12.2" ry="4"/></g><g id="XMLID_466_"><g id="XMLID_468_"><path id="XMLID_511_" fill="#37824E" d="M1182.1,744c-7.7-8.6-18.1-25.7-14.8-53.8c20.8,19.3,23.9,39.1,23.6,50.6 C1190.9,745.3,1185.2,747.4,1182.1,744z"/><path id="XMLID_510_" fill="#37824E" d="M1140.6,744.4c7.7-8.4,18.5-25.7,15.1-54.3c-21.1,19.6-24,39.7-23.6,51.1 C1132.3,745.7,1137.7,747.6,1140.6,744.4z"/><polygon id="XMLID_509_" fill="#A67648" points="1175.3 815.5 1148.2 815.5 1149.3 790.1 1150.4 764.6 1151.3 741.9 1152.4 717 1153.3 696.4 1154.3 673.3 1169.1 673.3 1170.1 696.4 1171 717 1172.1 741.9 1173 764.6 1174.2 790.1"/><polygon id="XMLID_508_" fill="#B77A51" points="1171 717 1152.4 717 1153.3 696.4 1170.1 696.4"/><path id="XMLID_507_" fill="#49A568" d="M1094.4,644.5c14.5-0.5,41.8,3.2,67.5,32.6c-38.9,3.5-61.3-12.7-71.4-23.1 C1087.2,650.5,1089.6,644.7,1094.4,644.5z"/><path id="XMLID_506_" fill="#3D9B70" d="M1088.7,700.9c9.9-10.4,32.2-27,71.4-23.8c-25.7,29.8-53.2,33.5-67.6,33.1 C1087.7,710,1085.4,704.3,1088.7,700.9z"/><path id="XMLID_505_" fill="#49A568" d="M1135.9,606.5c10.9,9.4,28.6,30.8,27.3,70.2c-31-24.2-36.1-51.5-36.3-65.9 C1126.8,606,1132.3,603.4,1135.9,606.5z"/><path id="XMLID_504_" fill="#5C9E41" d="M1231.3,644.6c-13.9-0.9-42.5,1.8-69.4,32.5c40.6,3.6,63.2-14.1,72.6-24.4 C1237.3,649.7,1235.4,644.8,1231.3,644.6z"/><path id="XMLID_503_" fill="#49A568" d="M1234.5,700.1c-10.3-10.5-32.4-26.2-70.7-23c25.1,29.1,51.9,33.4,66.6,33.1 C1235.6,710.1,1238.2,703.8,1234.5,700.1z"/><path id="XMLID_502_" fill="#3D9B70" d="M1188.7,605.9c-10.8,9.1-29.3,30.5-28,70.7c31.7-24.7,36.3-52.7,36.4-66.8 C1197.1,605.5,1192,603.2,1188.7,605.9z"/><path id="XMLID_501_" fill="#57C495" d="M1213.4,619.3c-12.9,4.4-38.8,17.9-51.7,57.4c39.5-12.9,53-38.8,57.4-51.7 C1220.4,621.4,1217,618.1,1213.4,619.3z"/><path id="XMLID_500_" fill="#74C655" d="M1111.3,619.7c13.3,4.8,38,18.7,50.4,57c-38.2-12.5-52.1-37.1-57-50.4 C1103.3,622.2,1107.2,618.2,1111.3,619.7z"/><path id="XMLID_499_" fill="#74C655" d="M1236.1,671.6c-13.4-5.8-39.9-12.2-74.4,5.3c34.4,17.5,60.9,11.2,74.4,5.3 C1240.8,680.2,1240.8,673.6,1236.1,671.6z"/><path id="XMLID_498_" fill="#57C495" d="M1086.3,681.8c13,5.9,40,13.2,75.4-4.9c-35.4-18-62.4-10.8-75.4-4.9 C1082.1,674,1082.1,679.9,1086.3,681.8z"/><polygon id="XMLID_497_" fill="#594FA3" points="1174.2 790.1 1149.3 790.1 1150.4 764.6 1173 764.6" opacity=".2"/><polygon id="XMLID_496_" fill="#B77A51" points="1173 764.6 1150.4 764.6 1151.3 741.9 1172.1 741.9"/><polygon id="XMLID_495_" fill="#594FA3" points="1172.1 741.9 1151.3 741.9 1152.4 717 1171 717" opacity=".2"/><path id="XMLID_494_" fill="#21B55C" d="M1209.5,732.6c-13.7-5.7-36.1-20.1-47.8-55.9c35.8,11.7,50.3,34.1,55.9,47.8 C1219.8,729.6,1214.7,734.7,1209.5,732.6z"/><path id="XMLID_493_" fill="#74C655" d="M1112,733.4c13.4-5.1,37.5-19.1,49.7-56.7c-37.6,12.2-51.6,36.3-56.7,49.7 C1103.4,730.8,1107.7,735,1112,733.4z"/><path id="XMLID_492_" fill="#21B55C" d="M1156.7,601.7c-5.9,13.2-12.7,40,5.1,74.9c17.8-34.9,11-61.7,5.1-74.9 C1164.9,597.4,1158.6,597.4,1156.7,601.7z"/><circle id="XMLID_471_" cx="1166.6" cy="685.6" r="12.3" fill="#7C5840"/><circle id="XMLID_470_" cx="1152.4" cy="696.4" r="12.3" fill="#7C5840"/></g><g id="XMLID_464_"><path id="XMLID_491_" fill="#37824E" d="M1219.8,784.5c-5-5.6-11.8-16.8-9.7-35.2c13.6,12.6,15.7,25.6,15.4,33.1 C1225.6,785.3,1221.9,786.7,1219.8,784.5z"/><path id="XMLID_490_" fill="#37824E" d="M1192.7,784.7c5.1-5.5,12.1-16.8,9.9-35.5c-13.8,12.8-15.7,26-15.4,33.5 C1187.2,785.5,1190.7,786.8,1192.7,784.7z"/><polygon id="XMLID_489_" fill="#A67648" points="1215.3 831.2 1197.6 831.2 1198.3 814.6 1199 797.9 1199.7 783.1 1200.4 766.8 1201 753.3 1201.6 738.2 1211.3 738.2 1212 753.3 1212.5 766.8 1213.3 783.1 1213.9 797.9 1214.6 814.6"/><polygon id="XMLID_488_" fill="#B77A51" points="1212.5 766.8 1200.4 766.8 1201 753.3 1212 753.3"/><path id="XMLID_487_" fill="#49A568" d="M1162.4,719.3c9.5-0.3,27.3,2.1,44.2,21.3c-25.5,2.3-40.1-8.3-46.7-15.1 C1157.7,723.3,1159.3,719.5,1162.4,719.3z"/><path id="XMLID_486_" fill="#3D9B70" d="M1158.7,756.2c6.5-6.8,21.1-17.7,46.7-15.6c-16.8,19.5-34.8,22-44.2,21.6 C1158.1,762.2,1156.6,758.5,1158.7,756.2z"/><path id="XMLID_485_" fill="#49A568" d="M1189.6,694.5c7.1,6.2,18.7,20.2,17.8,45.9c-20.3-15.9-23.6-33.7-23.8-43.1 C1183.6,694.2,1187.2,692.5,1189.6,694.5z"/><path id="XMLID_484_" fill="#5C9E41" d="M1252,719.4c-9.1-0.6-27.8,1.2-45.4,21.3c26.6,2.4,41.3-9.2,47.5-16 C1255.9,722.8,1254.7,719.6,1252,719.4z"/><path id="XMLID_483_" fill="#49A568" d="M1254.1,755.7c-6.7-6.8-21.2-17.1-46.2-15.1c16.4,19,34,21.8,43.6,21.6 C1254.8,762.3,1256.5,758.2,1254.1,755.7z"/><path id="XMLID_482_" fill="#3D9B70" d="M1224.1,694.1c-7.1,5.9-19.2,20-18.3,46.3c20.7-16.2,23.8-34.5,23.8-43.7 C1229.6,693.8,1226.3,692.3,1224.1,694.1z"/><path id="XMLID_481_" fill="#57C495" d="M1240.3,702.8c-8.5,2.9-25.4,11.7-33.8,37.6c25.8-8.4,34.7-25.4,37.6-33.8 C1244.9,704.3,1242.6,702,1240.3,702.8z"/><path id="XMLID_480_" fill="#74C655" d="M1173.5,703.1c8.7,3.2,24.8,12.2,33,37.3c-25-8.1-34.1-24.3-37.3-33 C1168.3,704.7,1170.8,702.2,1173.5,703.1z"/><path id="XMLID_479_" fill="#74C655" d="M1255.1,737.1c-8.8-3.8-26.1-8-48.6,3.5c22.5,11.5,39.9,7.3,48.6,3.5 C1258.2,742.7,1258.2,738.4,1255.1,737.1z"/><path id="XMLID_478_" fill="#57C495" d="M1157.1,743.7c8.5,3.9,26.2,8.6,49.4-3.2c-23.2-11.8-40.8-7.1-49.4-3.2 C1154.4,738.6,1154.4,742.5,1157.1,743.7z"/><polygon id="XMLID_477_" fill="#594FA3" points="1214.6 814.6 1198.3 814.6 1199 797.9 1213.9 797.9" opacity=".2"/><polygon id="XMLID_476_" fill="#B77A51" points="1213.9 797.9 1199 797.9 1199.7 783.1 1213.3 783.1"/><polygon id="XMLID_475_" fill="#594FA3" points="1213.3 783.1 1199.7 783.1 1200.4 766.8 1212.5 766.8" opacity=".2"/><path id="XMLID_474_" fill="#21B55C" d="M1237.8,777c-9-3.7-23.6-13.2-31.3-36.6c23.4,7.6,32.9,22.3,36.6,31.3 C1244.5,775,1241.1,778.4,1237.8,777z"/><path id="XMLID_473_" fill="#74C655" d="M1174,777.5c8.8-3.3,24.5-12.5,32.5-37.1c-24.6,8-33.8,23.7-37.1,32.5 C1168.3,775.8,1171.1,778.6,1174,777.5z"/><path id="XMLID_472_" fill="#21B55C" d="M1203.2,691.4c-3.9,8.6-8.3,26.2,3.3,49c11.6-22.9,7.2-40.4,3.3-49 C1208.5,688.5,1204.5,688.5,1203.2,691.4z"/><circle id="XMLID_33_" cx="1209.7" cy="746.3" r="8" fill="#7C5840"/><circle id="XMLID_465_" cx="1200.4" cy="753.3" r="8" fill="#7C5840"/></g><g id="XMLID_513_"><path id="XMLID_535_" fill="#37824E" d="M538.1,753.7c-5-5.6-11.8-16.8-9.7-35.2c13.6,12.6,15.7,25.6,15.4,33.1 C543.8,754.6,540.1,756,538.1,753.7z"/><path id="XMLID_534_" fill="#37824E" d="M510.9,754c5.1-5.5,12.1-16.8,9.9-35.5c-13.8,12.8-15.7,26-15.4,33.5 C505.5,754.8,509,756.1,510.9,754z"/><polygon id="XMLID_533_" fill="#A67648" points="533.6 800.5 515.9 800.5 516.6 783.9 517.3 767.2 517.9 752.4 518.6 736.1 519.2 722.6 519.9 707.5 529.6 707.5 530.2 722.6 530.8 736.1 531.5 752.4 532.1 767.2 532.9 783.9"/><polygon id="XMLID_532_" fill="#B77A51" points="530.8 736.1 518.6 736.1 519.2 722.6 530.2 722.6"/><path id="XMLID_531_" fill="#49A568" d="M480.7,688.6c9.5-0.3,27.3,2.1,44.2,21.3c-25.5,2.3-40.1-8.3-46.7-15.1 C476,692.6,477.5,688.7,480.7,688.6z"/><path id="XMLID_530_" fill="#3D9B70" d="M476.9,725.5c6.5-6.8,21.1-17.7,46.7-15.6c-16.8,19.5-34.8,22-44.2,21.6 C476.3,731.5,474.8,727.7,476.9,725.5z"/><path id="XMLID_529_" fill="#49A568" d="M507.8,663.8c7.1,6.2,18.7,20.2,17.8,45.9c-20.3-15.9-23.6-33.7-23.8-43.1 C501.9,663.4,505.5,661.7,507.8,663.8z"/><path id="XMLID_528_" fill="#5C9E41" d="M570.3,688.7c-9.1-0.6-27.8,1.2-45.4,21.3c26.6,2.4,41.3-9.2,47.5-16 C574.2,692,572.9,688.8,570.3,688.7z"/><path id="XMLID_527_" fill="#49A568" d="M572.4,725c-6.7-6.8-21.2-17.1-46.2-15.1c16.4,19,34,21.8,43.6,21.6 C573.1,731.5,574.7,727.4,572.4,725z"/><path id="XMLID_526_" fill="#3D9B70" d="M542.4,663.4c-7.1,5.9-19.2,20-18.3,46.3c20.7-16.2,23.8-34.5,23.8-43.7 C547.9,663.1,544.6,661.6,542.4,663.4z"/><path id="XMLID_525_" fill="#57C495" d="M558.6,672.1c-8.5,2.9-25.4,11.7-33.8,37.6c25.8-8.4,34.7-25.4,37.6-33.8 C563.1,673.5,560.9,671.3,558.6,672.1z"/><path id="XMLID_524_" fill="#74C655" d="M491.8,672.4c8.7,3.2,24.8,12.2,33,37.3c-25-8.1-34.1-24.3-37.3-33 C486.5,674,489.1,671.4,491.8,672.4z"/><path id="XMLID_523_" fill="#74C655" d="M573.4,706.3c-8.8-3.8-26.1-8-48.6,3.5c22.5,11.5,39.9,7.3,48.6,3.5 C576.4,712,576.4,707.7,573.4,706.3z"/><path id="XMLID_522_" fill="#57C495" d="M475.4,713c8.5,3.9,26.2,8.6,49.4-3.2c-23.2-11.8-40.8-7.1-49.4-3.2 C472.7,707.9,472.7,711.7,475.4,713z"/><polygon id="XMLID_521_" fill="#594FA3" points="532.9 783.9 516.6 783.9 517.3 767.2 532.1 767.2" opacity=".2"/><polygon id="XMLID_520_" fill="#B77A51" points="532.1 767.2 517.3 767.2 517.9 752.4 531.5 752.4"/><polygon id="XMLID_519_" fill="#594FA3" points="531.5 752.4 517.9 752.4 518.6 736.1 530.8 736.1" opacity=".2"/><path id="XMLID_518_" fill="#21B55C" d="M556,746.3c-9-3.7-23.6-13.2-31.3-36.6c23.4,7.6,32.9,22.3,36.6,31.3 C562.7,744.3,559.4,747.6,556,746.3z"/><path id="XMLID_517_" fill="#74C655" d="M492.2,746.8c8.8-3.3,24.5-12.5,32.5-37.1c-24.6,8-33.8,23.7-37.1,32.5 C486.6,745,489.4,747.8,492.2,746.8z"/><path id="XMLID_516_" fill="#21B55C" d="M521.4,660.6c-3.9,8.6-8.3,26.2,3.3,49c11.6-22.9,7.2-40.4,3.3-49 C526.8,657.8,522.7,657.8,521.4,660.6z"/><circle id="XMLID_515_" cx="527.9" cy="715.5" r="8" fill="#7C5840"/><circle id="XMLID_514_" cx="518.6" cy="722.6" r="8" fill="#7C5840"/></g><g id="XMLID_536_"><path id="XMLID_559_" fill="#37824E" d="M226.4,753.1c-7.7-8.5-18-25.6-14.7-53.6c20.7,19.2,23.8,38.9,23.5,50.4 C235.1,754.4,229.4,756.5,226.4,753.1z"/><path id="XMLID_558_" fill="#37824E" d="M185,753.5c7.7-8.4,18.5-25.6,15.1-54c-21,19.5-23.9,39.6-23.5,50.9 C176.8,754.7,182.1,756.7,185,753.5z"/><polygon id="XMLID_557_" fill="#A67648" points="219.5 824.3 192.5 824.3 193.6 799 194.7 773.6 195.7 751 196.8 726.2 197.7 705.7 198.7 682.7 213.4 682.7 214.4 705.7 215.3 726.2 216.4 751 217.3 773.6 218.4 799"/><polygon id="XMLID_556_" fill="#B77A51" points="215.3 726.2 196.8 726.2 197.7 705.7 214.4 705.7"/><path id="XMLID_555_" fill="#49A568" d="M139,654c14.4-0.5,41.6,3.2,67.3,32.5c-38.8,3.5-61-12.6-71.1-23 C131.9,660,134.2,654.2,139,654z"/><path id="XMLID_554_" fill="#3D9B70" d="M133.3,710.1c9.9-10.4,32-26.9,71.1-23.7c-25.6,29.7-53,33.4-67.3,32.9 C132.4,719.2,130.1,713.5,133.3,710.1z"/><path id="XMLID_553_" fill="#49A568" d="M180.4,616.2c10.9,9.4,28.5,30.7,27.2,69.9c-30.9-24.1-36-51.3-36.2-65.6 C171.2,615.7,176.8,613.1,180.4,616.2z"/><path id="XMLID_552_" fill="#5C9E41" d="M275.4,654.1c-13.9-0.9-42.3,1.8-69.1,32.4c40.5,3.6,62.9-14.1,72.3-24.3 C281.3,659.2,279.4,654.3,275.4,654.1z"/><path id="XMLID_551_" fill="#49A568" d="M278.5,709.4c-10.2-10.4-32.2-26.1-70.4-22.9c25,29,51.7,33.2,66.3,32.9 C279.6,719.3,282.2,713.1,278.5,709.4z"/><path id="XMLID_550_" fill="#3D9B70" d="M232.9,615.6c-10.8,9-29.2,30.4-27.8,70.4c31.6-24.6,36.2-52.4,36.2-66.5 C241.3,615.2,236.2,612.8,232.9,615.6z"/><path id="XMLID_549_" fill="#57C495" d="M257.5,628.9c-12.9,4.4-38.7,17.8-51.5,57.2c39.3-12.8,52.8-38.6,57.2-51.5 C264.5,631,261.1,627.7,257.5,628.9z"/><path id="XMLID_548_" fill="#74C655" d="M155.9,629.3c13.2,4.8,37.8,18.6,50.2,56.7c-38.1-12.4-51.9-37-56.7-50.2 C147.9,631.8,151.8,627.8,155.9,629.3z"/><path id="XMLID_546_" fill="#74C655" d="M280.1,681c-13.3-5.8-39.7-12.1-74,5.3c34.3,17.4,60.7,11.1,74,5.3 C284.8,689.6,284.8,683,280.1,681z"/><path id="XMLID_545_" fill="#57C495" d="M131,691.1c13,5.9,39.9,13.1,75.1-4.8c-35.2-17.9-62.2-10.7-75.1-4.8 C126.8,683.3,126.8,689.2,131,691.1z"/><polygon id="XMLID_544_" fill="#594FA3" points="218.4 799 193.6 799 194.7 773.6 217.3 773.6" opacity=".2"/><polygon id="XMLID_543_" fill="#B77A51" points="217.3 773.6 194.7 773.6 195.7 751 216.4 751"/><polygon id="XMLID_542_" fill="#594FA3" points="216.4 751 195.7 751 196.8 726.2 215.3 726.2" opacity=".2"/><path id="XMLID_541_" fill="#21B55C" d="M253.7,741.7c-13.7-5.6-36-20-47.6-55.7c35.7,11.6,50.1,33.9,55.7,47.6 C263.9,738.7,258.8,743.8,253.7,741.7z"/><path id="XMLID_540_" fill="#74C655" d="M156.6,742.5c13.4-5,37.3-19,49.5-56.5c-37.4,12.2-51.4,36.1-56.5,49.5 C148,739.9,152.2,744.1,156.6,742.5z"/><path id="XMLID_539_" fill="#21B55C" d="M201,611.4c-5.9,13.2-12.6,39.8,5.1,74.6c17.7-34.8,10.9-61.5,5.1-74.6 C209.2,607,203,607,201,611.4z"/><circle id="XMLID_538_" cx="210.9" cy="694.9" r="12.2" fill="#7C5840"/><circle id="XMLID_537_" cx="196.8" cy="705.7" r="12.2" fill="#7C5840"/></g></g><g id="XMLID_199_"><g id="XMLID_96_"><rect id="XMLID_88_" width="14.6" height="44.8" x="311.2" y="762.3" fill="#594FA3"/><rect id="XMLID_99_" width="68" height="14.6" x="325" y="762.3" fill="#594FA3"/><path id="XMLID_136_" fill="#A67648" d="M327.4,793.8l-1.4,27.1l-0.3,5.1h-41.4v-3c0-0.7,0-1.4,0.1-2.1c1-7.8,7.7-13.9,15.9-13.9 h8.3l-1.4-13.3H327.4z"/><path id="XMLID_131_" fill="#FFC01A" d="M326.1,820.9l-0.3,5.1h-41.4v-3c0-0.7,0-1.4,0.1-2.1H326.1z"/><rect id="XMLID_110_" width="14.6" height="44.8" x="393" y="762.3" fill="#594FA3"/><path id="XMLID_101_" fill="#A67648" d="M391.3,793.8l1.4,27.1l0.3,5.1h41.4v-3c0-0.7,0-1.4-0.1-2.1c-1-7.8-7.7-13.9-15.9-13.9 h-8.3l1.4-13.3H391.3z"/><path id="XMLID_100_" fill="#FFC01A" d="M392.7,820.9l0.3,5.1h41.4v-3c0-0.7,0-1.4-0.1-2.1H392.7z"/></g><rect id="XMLID_86_" width="110.2" height="204.7" x="301" y="557.7" fill="#D94334"/><g id="XMLID_17_"><path id="XMLID_94_" fill="#594FA3" d="M325,521.8v252.5h-82c1.2-120,17.5-190,29-224.8c6.4-19.4,11.4-27.8,11.4-27.8H325z"/><g id="XMLID_20_"><rect id="XMLID_93_" width="17.1" height="224" x="312.9" y="557.7" fill="#FFC01A"/></g><path id="XMLID_91_" fill="#594FA3" d="M325,557.7h5v41.7c-1.7-1.3-3.3-2.6-5-3.9c-4.4-3.6-8.5-7.4-12.1-11.4 c-3-3.3-5.6-6.8-7.6-10.3l-2.7,6c0,0-18.9-12.2-30.7-30.1c6.4-19.4,11.4-27.8,11.4-27.8H325V557.7z" opacity=".2"/></g><g id="XMLID_34_"><path id="XMLID_89_" fill="#594FA3" d="M473.3,774.3h-82V521.8H433c0,0,3.3,5.5,7.9,17.9c6.9,18.5,17,52.3,24,105.8 c4.3,32.5,7.5,72.2,8.3,120.3C473.3,768.6,473.3,771.5,473.3,774.3z"/><g id="XMLID_56_"><rect id="XMLID_150_" width="17.1" height="224" x="386.3" y="557.7" fill="#FFC01A"/></g><path id="XMLID_145_" fill="#594FA3" d="M429.8,628.1c-6.6,10.5-17.8,15.9-26.4,18.7c-6.8,2.2-12.1,2.8-12.1,2.8 s-2.2-1.8-5-4.1v-7.1c4.9-0.2,11-2.2,17.1-4.7C420.4,626.7,437.5,616,429.8,628.1z" opacity=".2"/><path id="XMLID_79_" fill="#594FA3" d="M286.5,628.1c6.6,10.5,17.8,15.9,26.4,18.7c6.8,2.2,12.1,2.8,12.1,2.8 s2.2-1.8,5-4.1v-7.1c-4.9-0.2-11-2.2-17.1-4.7C296,626.7,278.9,616,286.5,628.1z" opacity=".2"/><path id="XMLID_92_" fill="#594FA3" d="M440.9,539.7c-4.3,7.8-11.9,19.6-20.9,25.9l-2.3-6c0,0-4.5,10.2-14.3,23.2 c-3.4,4.5-7.4,9.3-12.1,14.2c-1.6,1.6-3.2,3.3-5,4.9v-44.2h5v-35.9H433C433,521.8,436.2,527.3,440.9,539.7z" opacity=".2"/></g><path id="XMLID_41_" fill="#A67648" d="M455.7,468.8c2.6,50.1-37.5,79-37.5,79c0.5-2.5-3-6-3-6c-15.8,39.9-48.5,57.5-49.5,58 c0,0,0,0,0,0c-41.5-13-61-52.5-61-52.5v10c-48-22.5-48.5-88.3-48.5-91c0-0.1,0-0.1,0-0.1c-1-5.6-1.5-11.5-1.5-17.4 c0-56.1,45.4-101.5,101.5-101.5c46.9,0,86.4,31.9,98,75.2c2.3,8.4,3.5,17.2,3.5,26.3C457.7,455.7,457,462.4,455.7,468.8z"/><path id="XMLID_40_" fill="#F7B992" d="M446.7,448.8c0,36.9-22.1,68.7-53.9,82.8c-11.2,5-23.6,7.7-36.6,7.7 c-50,0-90.5-40.5-90.5-90.5c0-10.2,1.7-20,4.8-29.1c7.3-21.5,22.5-39.4,42.1-50.2c12.9-7.1,27.8-11.2,43.6-11.2 c5.6,0,11.1,0.5,16.5,1.5C414.8,367.6,446.7,404.5,446.7,448.8z"/><path id="XMLID_26_" fill="#F0A176" d="M446.7,448.8c0,36.9-22.1,68.7-53.9,82.8c0.6-4.2,5.1-10.1,15.8-18.3 c45.3-34.5,27.8-94.5,27.8-94.5c-1.3,2.3-6,2.4-6,2.4c-5.8-19.3-23.7-39.9-23.7-39.9c-10.7,18.2-38.5,25.7-38.5,25.7 c-1.7-8-15.6-19.5-15.6-19.5c-20.4,27.3-81.1,36-81.1,36l-1.2-3.8c7.3-21.5,22.5-39.4,42.1-50.2l19.3-2.9l40.8-6.8 C414.8,367.6,446.7,404.5,446.7,448.8z" opacity=".3"/><g id="XMLID_5_"><g id="XMLID_4_"><path id="XMLID_7_" fill="none" stroke="#A67648" stroke-linecap="round" stroke-miterlimit="10" stroke-width="6" d="M386.3,433.4c5-1.7,10.6-0.2,14.1,3.8"/></g><g id="XMLID_6_"><path id="XMLID_8_" fill="none" stroke="#A67648" stroke-linecap="round" stroke-miterlimit="10" stroke-width="6" d="M326.1,433.4c-5-1.7-10.6-0.2-14.1,3.8"/></g></g><path id="XMLID_66_" fill="#A67648" d="M484.7,453.8c-6.5,0-13.5-5-13.5-5c-3,20.2-21.8,29.3-22.4,29.6c6-14.5,3.4-34.6-0.4-50.5 c-3.5-14.6-8.2-25.6-8.2-25.6c0.5,4-4.5,11-4.5,11c-14-31.5-31.5-42.5-31.5-42.5c-4.2,16.5-31.5,28-31.5,28c-1-4-19.3-22-19.3-22 c-20.8,26.5-75.8,39-75.8,39c-2.5-5.5-4-12.5-4-12.5c-4.6,5.7-7.7,12.7-9.9,20.2c-8.2,27.7-2.6,61.8-2.6,61.8l-9,12 c-12.8-14.5-14-40.5-14-40.5c-6.5,0-16,9.4-16,9.4c0-35.9,9.6-57.8,12.6-63.8l0.7-1.4l0.1-0.2l0-0.1c-6.5-0.5-9.5-4.5-9.5-4.5 s7-1,20-28.5c4-8.5,10.4-15.3,17.3-20.7c15.7-12.2,34.2-17.3,34.2-17.3s1.8-0.4,5.1-1c16.2-3.1,68.1-11.7,108.6-5 c8.2,1.3,15.9,3.3,22.8,6.1c2.2,0.9-7.4,6.2-7.4,6.2c39.7,12,51.3,51.7,50.2,69.1c0,0.8-0.1,1.5-0.2,2.2c-1,6.4,0.1,15.1,1.7,23.2 C480.9,442.8,484.7,453.8,484.7,453.8z"/><path id="XMLID_38_" fill="#9B6C45" d="M478.4,430.6c-6.8-8.9-14.4-23-15-42.5c-1-36-49-53.5-49-53.5l-3-10.8 c8.2,1.3,15.9,3.3,22.8,6.1c2.2,0.9-7.4,6.2-7.4,6.2c39.7,12,51.3,51.7,50.2,69.1c0,0.8-0.1,1.5-0.2,2.2 C475.7,413.7,476.8,422.4,478.4,430.6z"/><path id="XMLID_42_" fill="#9B6C45" d="M258.7,488.6l-6.5,8.7c-12.8-14.5-14-40.5-14-40.5c-6.5,0-16,9.4-16,9.4 c0-35.9,9.6-57.8,12.6-63.8l0.7-1.4l0.1-0.2l0-0.1c-3.1,18.9,3.5,36.8,3.5,36.8c7.5-11.9,12.8,1.4,17.5,1.1 C251.4,457.1,258.7,488.6,258.7,488.6z"/><path id="XMLID_47_" fill="#9B6C45" d="M418.9,342.7c-11.9,9.7-124,27.6-155.4,4.5c15.7-12.2,34.2-17.3,34.2-17.3s1.8-0.4,5.1-1 c46.5-2.1,112.6,2.5,112.6,2.5S431.2,332.7,418.9,342.7z"/><path id="XMLID_24_" fill="#9B6C45" d="M484.7,453.8c-6.5,0-13.5-5-13.5-5c-3,20.2-21.8,29.3-22.4,29.6c6-14.5,3.4-34.6-0.4-50.5 l-1.6-21c0,0,16,14.6,24.2,14.6h1.3c0,0-0.7-9.1,4.7-16.5c0,0.8-0.1,1.5-0.2,2.2C474.2,423.3,484.7,453.8,484.7,453.8z"/><path id="XMLID_44_" fill="#F7B992" d="M458.3,421.6c-1.5,0-2.9,0.4-4.1,1v16c1.2,0.6,2.6,1,4.1,1c5,0,9-4,9-9 S463.3,421.6,458.3,421.6z"/><path id="XMLID_16_" fill="#A67648" d="M357.7,510.7c-37,26.5-73.8-4.6-73.8-4.6c17,40.1,73.8,51.6,73.8,51.6s56.8-11.6,73.8-51.6 C431.5,506,394.7,537.2,357.7,510.7z"/><path id="XMLID_48_" fill="#9B6C45" d="M455.8,468.8c2.6,50.1-37.5,79-37.5,79c0.5-2.5-3-6-3-6c-15.8,39.9-48.5,57.5-49.5,58 c15.3-10.2,21.3-31.8,21.3-31.8c-2.3,0-4.7-2.7-4.7-2.7c7.7-3,17.2-23,17.2-23c-13.7,0.6-23.6-1.4-30.4-3.9 c-9.3-3.4-12.9-7.8-12.9-7.8c-7.8,3.6-14.8,5.5-21,6.2c-27.8,3.2-39.8-17.5-39.8-17.5l3.7-0.3l23.9-2l30-19.6l22.4-14.6 c7.7,2.5,17.1,8.3,24.1,20.5c6.3,10.9,13.7,12.1,19.2,11c17.2-16.5,27.9-39.6,27.9-65.3c0-11.2-2-21.9-5.8-31.8l5.8-10l7.5,15.6 c0,0,0-0.1,0.1-0.1c2.3,8.4,3.5,17.2,3.5,26.3C457.8,455.7,457.1,462.4,455.8,468.8z"/><path id="XMLID_11_" fill="#F7B992" d="M252.5,439.7c1.5,0,2.9-0.4,4.1-1v-16c-1.2-0.6-2.6-1-4.1-1c-5,0-9,4-9,9 S247.5,439.7,252.5,439.7z"/><g id="XMLID_14_"><path id="XMLID_59_" fill="#A67648" d="M362,505.2c-2.1,11.6-11,23.1-31.4,25.4c-41.3,4.7-42.1-22.2-42.1-22.2s0.6,0.5,1.7,1.1 c4.3,2.6,16.1,7.8,25.5-8.4c11.7-20.1,30-23,35.8-21.7C359,481.3,364.2,493.3,362,505.2z"/><path id="XMLID_76_" fill="#FFD788" d="M288.5,508.5c0,0,0.6,0.5,1.7,1.1c4.3,2.6,16.1,7.8,25.5-8.4 c11.7-20.1,30-23,35.8-21.7c3.3,0.8,6.2,3.5,8.2,7.3c-1.5-1.4-3.1-2.4-4.9-2.8c-5.7-1.3-24.1,1.5-35.8,21.7 c-9.4,16.2-21.2,11.1-25.5,8.4c0,0,0,0,0,0c-1.8-1.1-3.2-2.6-4.2-4.4L288.5,508.5z" opacity=".2"/><path id="XMLID_45_" fill="#A67648" d="M426.7,508.5c0,0-0.7,24.8-37.4,22.6c-1.5-0.1-3.1-0.2-4.7-0.4 c-26.2-3-33.5-21.3-31.6-35.3c1.1-8,5.3-14.6,10.8-15.9c2.3-0.5,6.6-0.4,11.6,1.2c7.7,2.5,17.1,8.3,24.1,20.5 c6.3,10.9,13.7,12.1,19.2,11C423.5,511.2,426.7,508.5,426.7,508.5z"/></g><path id="XMLID_10_" fill="#F0A176" d="M361.5,488.6h-7.6c-8.3,0-14.3-9-12.4-18.3l3.8-18.1c1.4-6.6,6.5-11.3,12.4-11.3h0 c5.9,0,11,4.7,12.4,11.3l3.8,18.1C375.8,479.7,369.7,488.6,361.5,488.6z"/><g id="XMLID_13_"><path id="XMLID_62_" fill="#DC8C2D" d="M408.6,296l-26.2-27.4c-2.1-2.2-5.6-1.9-7.4,0.5l-31.2,43l65.5-3.9L408.6,296z"/><path id="XMLID_61_" fill="#DC8C2D" d="M272.8,316.5l67.3-4l-37.3-38.9c-2.1-2.2-5.6-1.9-7.4,0.5l-23.3,32.1L272.8,316.5z"/><path id="XMLID_46_" fill="#FFC01A" d="M415.1,270.1l3.9,63.7c0.1,2.3-1.3,4.3-3.5,4.9c-9.1,2.5-34.3,8.8-71.2,11 c-14,0.8-26.3,0.9-36.8,0.6c-9.3-0.3-17.2-0.8-23.3-1.5c-5.2-0.5-9.2-1.1-11.9-1.5c-2.3-0.3-4-2.2-4.1-4.5l-3.9-64 c-0.3-4.2,4.7-6.7,8-4l1.3,1.1l22.9,19.5c2.1,1.8,5.4,1.4,7-0.8l31.2-43c0.7-1,1.8-1.6,2.9-1.9c1.6-0.3,3.3,0.1,4.5,1.4l37.3,38.9 c2,2,5.2,2,7.1-0.1l20.3-22.9C409.5,263.9,414.8,265.8,415.1,270.1z"/><path id="XMLID_43_" fill="#DC8C2D" d="M415.1,270.1l3.9,63.7c0.1,2.3-1.3,4.3-3.5,4.9c-9.1,2.5-34.3,8.8-71.2,11 c-14,0.8-26.3,0.9-36.8,0.6c52.6-31.9,39.3-79.7,30.1-100.5c1.6-0.3,3.3,0.1,4.5,1.4l37.3,38.9c2,2,5.2,2,7.1-0.1l20.3-22.9 C409.5,263.9,414.8,265.8,415.1,270.1z" opacity=".2"/><g id="XMLID_15_"><path id="XMLID_22_" fill="#DC8C2D" d="M418.2,321l0.3,5.2c-0.3,0.1-0.7,0.2-1,0.3c-12.3,3.7-38,11.3-73.7,14 c-1.9,0.1-3.8,0.3-5.7,0.4c-32.8,2-57.3-1.3-69.3-2.9c-0.3,0-0.7-0.1-1-0.1l-0.3-5.1c0.6,0.1,1.3,0.2,2,0.3 c12.6,1.7,38.8,5.2,73.9,2.5c35.2-2.7,60.5-10.2,72.7-13.8C416.8,321.4,417.5,321.2,418.2,321z"/></g><path id="XMLID_39_" fill="#FFD788" d="M284.1,348.9c-5.2-0.5-9.2-1.1-11.9-1.5c-2.3-0.3-4-2.2-4.1-4.5l-3.9-64 c-0.3-4.2,4.7-6.7,8-4l1.3,1.1C273.4,291.6,274.5,325.6,284.1,348.9z" opacity=".5"/></g><path id="XMLID_18_" fill="#FFD788" d="M337.2,373.3c0,0-24.5,22.5-54.4,22.3v-5.3c0,0-17.6,8.3-34,7 c0,0,25.6-18.8,32.3-30.8c0,0,4,9.5-0.8,14l8.8-4.8l1,9C290.2,384.8,310.2,384.3,337.2,373.3z" opacity=".2"/><path id="XMLID_78_" fill="#594FA3" d="M445.3,765.8c3.8-8.7,6.5-18.9,8.4-29.4c5.5-30.4-19-57.8-49.8-55.7 c-0.2,0-0.4,0-0.5,0c-4.9,0.3-9.1,0.4-12.1,0.4c-3.1,0-5-0.1-5-0.1v-11.3c1.7,0,3.4,0,5-0.1c4.3-0.1,8.3-0.3,12.1-0.6 c43.2-3.7,58.3-20.9,58.3-20.9l3.3-2.5c4.3,32.5,7.5,72.2,8.3,120.3c0,2.8,0.1,5.6,0.1,8.5h-32.4 C442.5,771.7,444,768.9,445.3,765.8z" opacity=".2"/><path id="XMLID_58_" fill="#594FA3" d="M271,765.8c-3.8-8.7-6.5-18.9-8.4-29.4c-5.5-30.4,19-57.8,49.8-55.7 c0.2,0,0.4,0,0.5,0c4.9,0.3,9.1,0.4,12.1,0.4c3.1,0,5-0.1,5-0.1v-11.3c-1.7,0-3.4,0-5-0.1c-4.3-0.1-8.3-0.3-12.1-0.6 c-43.2-3.7-58.3-20.9-58.3-20.9l-3.3-2.5c-4.3,32.5-7.5,72.2-8.3,120.3c0,2.8-0.1,5.6-0.1,8.5h32.4 C273.8,771.7,272.4,768.9,271,765.8z" opacity=".2"/><rect id="XMLID_19_" width="92.3" height="15.8" x="237.7" y="765.8" fill="#FFC01A"/><rect id="XMLID_90_" width="92.3" height="15.8" x="386.3" y="765.8" fill="#FFC01A"/><g id="XMLID_75_"><rect id="XMLID_2_" width="72.3" height="32" x="322.1" y="655.3" fill="#A67648"/><rect id="XMLID_68_" width="72.3" height="4.3" x="322.1" y="655.3" fill="#594FA3" opacity=".2"/><rect id="XMLID_12_" width="76.9" height="14.3" x="319.9" y="641" fill="#A67648"/><rect id="XMLID_69_" width="76.9" height="4.3" x="319.9" y="641" fill="#FFD788" opacity=".2"/><rect id="XMLID_21_" width="66.1" height="5.8" x="325.3" y="678.1" fill="#FFC01A"/><rect id="XMLID_70_" width="21.5" height="2.8" x="347.6" y="638.2" fill="#FFC01A"/><g id="XMLID_74_"><g id="XMLID_72_"><path id="XMLID_71_" fill="#F7B992" d="M391,657.7h6.7c1.2,0,2.3-1,2.3-2.3v-5c0-1.2-1-2.3-2.3-2.3H391c-2.6,0-4.8,2.1-4.8,4.8 l0,0C386.3,655.5,388.4,657.7,391,657.7z"/><path id="XMLID_73_" fill="#F7B992" d="M388.8,666.1h6.7c1.2,0,2.3-1,2.3-2.3v-5c0-1.2-1-2.3-2.3-2.3h-6.7 c-2.6,0-4.8,2.1-4.8,4.8l0,0C384,664,386.2,666.1,388.8,666.1z"/><path id="XMLID_95_" fill="#F7B992" d="M389.7,674.2h6c1.1,0,2-0.9,2-2v-4.5c0-1.1-0.9-2-2-2h-6c-2.4,0-4.3,1.9-4.3,4.3l0,0 C385.4,672.3,387.3,674.2,389.7,674.2z"/><path id="XMLID_102_" fill="#F7B992" d="M391.6,681h4.9c0.9,0,1.7-0.7,1.7-1.7v-3.7c0-0.9-0.7-1.7-1.7-1.7h-4.9 c-1.9,0-3.5,1.6-3.5,3.5l0,0C388.1,679.4,389.6,681,391.6,681z"/></g><g id="XMLID_84_"><path id="XMLID_119_" fill="#F7B992" d="M325.6,657.7h-6.7c-1.2,0-2.3-1-2.3-2.3v-5c0-1.2,1-2.3,2.3-2.3h6.7 c2.6,0,4.8,2.1,4.8,4.8l0,0C330.4,655.5,328.2,657.7,325.6,657.7z"/><path id="XMLID_109_" fill="#F7B992" d="M327.8,666.1h-6.7c-1.2,0-2.3-1-2.3-2.3v-5c0-1.2,1-2.3,2.3-2.3h6.7 c2.6,0,4.8,2.1,4.8,4.8l0,0C332.6,664,330.5,666.1,327.8,666.1z"/><path id="XMLID_105_" fill="#F7B992" d="M326.9,674.2h-6c-1.1,0-2-0.9-2-2v-4.5c0-1.1,0.9-2,2-2h6c2.4,0,4.3,1.9,4.3,4.3l0,0 C331.2,672.3,329.3,674.2,326.9,674.2z"/><path id="XMLID_97_" fill="#F7B992" d="M325,681h-4.9c-0.9,0-1.7-0.7-1.7-1.7v-3.7c0-0.9,0.7-1.7,1.7-1.7h4.9 c1.9,0,3.5,1.6,3.5,3.5l0,0C328.5,679.4,327,681,325,681z"/></g></g></g></g><g id="XMLID_134_"><g id="XMLID_269_"><rect id="XMLID_280_" width="14.6" height="44.8" x="644.9" y="762.3" fill="#EAE0D4"/><rect id="XMLID_277_" width="68" height="14.6" x="658.8" y="762.3" fill="#EAE0D4"/><path id="XMLID_276_" fill="#A67648" d="M661.1,793.8l-1.4,27.1l-0.3,5.1h-41.4v-3c0-0.7,0-1.4,0.1-2.1c1-7.8,7.7-13.9,15.9-13.9 h8.3l-1.4-13.3H661.1z"/><path id="XMLID_275_" fill="#D94334" d="M659.8,820.9l-0.3,5.1h-41.4v-3c0-0.7,0-1.4,0.1-2.1H659.8z"/><rect id="XMLID_272_" width="14.6" height="44.8" x="726.7" y="762.3" fill="#EAE0D4"/><path id="XMLID_271_" fill="#A67648" d="M725,793.8l1.4,27.1l0.3,5.1H768v-3c0-0.7,0-1.4-0.1-2.1c-1-7.8-7.7-13.9-15.9-13.9h-8.3 l1.4-13.3H725z"/><path id="XMLID_270_" fill="#D94334" d="M726.4,820.9l0.3,5.1H768v-3c0-0.7,0-1.4-0.1-2.1H726.4z"/></g><rect id="XMLID_266_" width="110.2" height="204.7" x="634.7" y="557.7" fill="#EAE0D4"/><rect id="XMLID_9_" width="62.5" height="7.3" x="657.6" y="750" fill="#A67648"/><g id="XMLID_28_"><path id="XMLID_281_" fill="#D94334" d="M665.9,549.3v220.3h-72c-4.2-29.5-5.5-56.8-4.9-81.6c0.4-14.5,1.4-28.2,2.9-40.9 c1.3-11.3,3-22,5-31.9c4.3-21.9,9.7-40.3,14.8-54.7c8.6-24,16.3-36.9,16.3-36.9L665.9,549.3z"/><path id="XMLID_430_" fill="#D94334" d="M786.7,769.6h-72.1V549.3l38-25.7c0,0,7.7,12.9,16.3,36.9c5.1,14.4,10.6,32.7,14.8,54.6v0 c2.5,12.7,4.6,26.6,6,41.7c0.9,9.7,1.6,19.8,1.8,30.4C792.2,712.3,790.9,739.8,786.7,769.6z"/><path id="XMLID_207_" fill="#594FA3" d="M791.5,687.3c-8.2,4.5-22.9,9.7-46.6,8.5c-5.9-0.3-12.3-1-19.4-2.1 c0,0-2.1,6.4-10.9,11.1c-5.7,3.1-18,5.5-30.4,5.2c-9.6-0.3-12.9-2.1-18.3-4.5c-12.5-5.5-15.4-14.1-15.4-14.1s-6.5,1.6-15.7,2.7 c-13.6,1.6-33.1,1.9-45.8-6c0.4-14.5,1.4-28.2,2.9-40.9c9.5,0.4,24.8,1.2,42.9,2c9.7,0.5,20.3,1,31.1,1.5 c16,0.8,32.7,1.6,48.8,2.4c10.5,0.5,20.8,1,30.3,1.5c18.9,1,35,1.8,44.8,2.4C790.6,666.5,791.2,676.7,791.5,687.3z" opacity=".2"/></g><path id="XMLID_179_" fill="#EAE0D4" d="M725.1,666.4c0,4.6-0.9,8.9-2.5,12.9c-5.1,12.6-17.4,21.5-31.9,21.5c-3.8,0-7.5-0.6-11-1.8 c-9.5-3.2-17.1-10.5-20.9-19.7c-1.6-4-2.5-8.3-2.5-12.9c0-3.4,0.5-6.7,1.4-9.8c1.7-5.8,5-11,9.3-15.1c6.2-5.8,14.5-9.4,23.7-9.4 c15.6,0,28.7,10.3,32.9,24.5C724.6,659.7,725.1,663,725.1,666.4z"/><path id="XMLID_173_" fill="#CDC4B3" d="M725.1,666.4c0,19-15.4,34.4-34.4,34.4c-3.8,0-7.5-0.6-11-1.8c16.3-0.8,35.1-9.4,32.9-32.6 c-2.2-23.3-33.7-25.1-45.5-24.9c6.2-5.8,14.5-9.4,23.7-9.4C709.7,632.1,725.1,647.4,725.1,666.4z"/><path id="XMLID_178_" fill="#FFC01A" d="M725.1,666.4c0,0.9,0,1.8-0.1,2.7c0,0.3-0.1,0.6-0.1,0.9c-0.1,1.1-0.3,2.1-0.5,3.1 c-0.1,0.5-0.2,1.1-0.3,1.6s-0.3,1-0.4,1.5c-0.2,0.6-0.4,1.2-0.6,1.7c-0.2,0.4-0.3,0.9-0.5,1.3h-63.8c-1.6-4-2.5-8.3-2.5-12.9 c0-3.4,0.5-6.7,1.4-9.8h65.9c0.2,0.7,0.4,1.4,0.5,2.1c0,0.2,0.1,0.3,0.1,0.5c0.1,0.3,0.1,0.6,0.2,0.9c0.1,0.5,0.2,1,0.2,1.4 c0.1,0.3,0.1,0.7,0.1,1.1c0.1,0.5,0.1,1.1,0.1,1.6c0,0.3,0,0.6,0,0.9C725.1,665.5,725.1,666,725.1,666.4z"/><path id="XMLID_175_" fill="#594FA3" d="M725.1,666.4c0,0.9,0,1.8-0.1,2.7c0,0.3-0.1,0.6-0.1,0.9 c-0.1,1.1-0.3,2.1-0.5,3.1c-0.1,0.5-0.2,1.1-0.3,1.6s-0.3,1-0.4,1.5c-0.2,0.6-0.4,1.2-0.6,1.7c-0.2,0.4-0.3,0.9-0.5,1.3h-11.2 c1.2-3.7,1.7-8,1.2-12.9c-0.4-3.8-1.5-7.1-3.2-9.8h14.3c0.2,0.7,0.4,1.4,0.5,2.1c0,0.2,0.1,0.3,0.1,0.5c0.1,0.3,0.1,0.6,0.2,0.9 c0.1,0.5,0.2,1,0.2,1.4c0.1,0.3,0.1,0.7,0.1,1.1c0.1,0.5,0.1,1.1,0.1,1.6c0,0.3,0,0.6,0,0.9C725.1,665.5,725.1,666,725.1,666.4z" opacity=".2"/><g id="XMLID_193_"><path id="XMLID_224_" fill="#594FA3" d="M783.7,615.2L783.7,615.2l-186.9,0c4.3-21.9,9.7-40.3,14.8-54.7h157.2 C774,574.9,779.4,593.2,783.7,615.2z" opacity=".2"/><path id="XMLID_180_" fill="#FFC01A" d="M712.6,636c0,1.3-0.1,2.6-0.3,3.8h-43c-0.2-1.2-0.3-2.5-0.3-3.8c0-11,8.1-20.1,18.7-21.6 c1-0.2,2.1-0.2,3.2-0.2C702.8,614.2,712.6,624,712.6,636z"/><g id="XMLID_60_"><g id="XMLID_568_"><g id="XMLID_569_"><g id="XMLID_579_"><g id="XMLID_586_"><path id="XMLID_587_" fill="#EFA66F" d="M724.7,657.7h6.7c1.2,0,2.3-1,2.3-2.3v-5c0-1.2-1-2.3-2.3-2.3h-6.7 c-2.6,0-4.8,2.1-4.8,4.8l0,0C720,655.5,722.1,657.7,724.7,657.7z"/></g><g id="XMLID_584_"><path id="XMLID_585_" fill="#EFA66F" d="M722.5,666.1h8.5c1.2,0,2.3-1,2.3-2.3v-5c0-1.2-1-2.3-2.3-2.3h-8.5 c-2.6,0-4.8,2.1-4.8,4.8l0,0C717.7,664,719.9,666.1,722.5,666.1z"/></g><g id="XMLID_582_"><path id="XMLID_583_" fill="#EFA66F" d="M723.6,674.2h7.6c1.1,0,2-0.9,2-2v-4.5c0-1.1-0.9-2-2-2h-7.6c-2.4,0-4.3,1.9-4.3,4.3 l0,0C719.3,672.3,721.2,674.2,723.6,674.2z"/></g><g id="XMLID_580_"><path id="XMLID_581_" fill="#EFA66F" d="M725.8,681h6.2c0.9,0,1.7-0.7,1.7-1.7v-3.7c0-0.9-0.7-1.7-1.7-1.7h-6.2 c-1.9,0-3.5,1.6-3.5,3.5l0,0C722.3,679.4,723.9,681,725.8,681z"/></g></g><g id="XMLID_570_"><g id="XMLID_577_"><path id="XMLID_578_" fill="#EFA66F" d="M659.3,657.7h-6.7c-1.2,0-2.3-1-2.3-2.3v-5c0-1.2,1-2.3,2.3-2.3h6.7 c2.6,0,4.8,2.1,4.8,4.8l0,0C664.1,655.5,661.9,657.7,659.3,657.7z"/></g><g id="XMLID_575_"><path id="XMLID_576_" fill="#EFA66F" d="M661.5,666.1h-8.9c-1.2,0-2.3-1-2.3-2.3v-5c0-1.2,1-2.3,2.3-2.3h8.9 c2.6,0,4.8,2.1,4.8,4.8v0C666.3,664,664.2,666.1,661.5,666.1z"/></g><g id="XMLID_573_"><path id="XMLID_574_" fill="#EFA66F" d="M660.5,674.2h-8c-1.1,0-2-0.9-2-2v-4.5c0-1.1,0.9-2,2-2h8c2.4,0,4.3,1.9,4.3,4.3l0,0 C664.7,672.3,662.8,674.2,660.5,674.2z"/></g><g id="XMLID_571_"><path id="XMLID_572_" fill="#EFA66F" d="M658.1,681h-6.5c-0.9,0-1.7-0.7-1.7-1.7v-3.7c0-0.9,0.7-1.7,1.7-1.7h6.5 c1.9,0,3.5,1.6,3.5,3.5v0C661.6,679.4,660,681,658.1,681z"/></g></g></g></g></g><path id="XMLID_190_" fill="#A67648" d="M811.4,660c-13.4,15.4-33.1,23.8-53.5,23.8h-26.1v-35.7H765c9.6,0,18.5-5.3,22.8-14 c5.5-11.2,8.8-28.4-4.2-49.4c-4.3-6.9-10.4-14.3-18.8-22v-39.2c0,0,8.3,7,18.8,18.2c16.2,17.4,37.6,45.2,41.2,73.3 C826.9,630.5,823.6,646,811.4,660z"/><path id="XMLID_174_" fill="#594FA3" d="M783.7,541.8v43c-4.3-6.9-10.4-14.3-18.8-22v-39.2 C764.9,523.6,773.2,530.6,783.7,541.8z" opacity=".2"/><path id="XMLID_225_" fill="#A67648" d="M652.4,648.2v35.7h-26.1c-20.4,0-40.1-8.5-53.5-23.8c-3.1-3.6-5.7-7.3-7.7-11 c-19.1-35.5,8.7-77.2,31.1-102.4c7.6-8.6,14.5-15.3,18.8-19.2c2.7-2.5,4.3-3.8,4.3-3.8v39.2c-1.5,1.4-3,2.8-4.3,4.1 c-9.2,9.2-15.2,17.9-18.8,25.9c-7.8,17.3-4.6,31.6,0.1,41.3c4.3,8.6,13.2,14,22.8,14H652.4z"/><path id="XMLID_153_" fill="#594FA3" d="M615,527.4v39.5c-9.2,9.2-15.2,17.9-18.8,25.9v-46.3 C603.8,538,610.7,531.3,615,527.4z" opacity=".2"/></g><g id="XMLID_32_"><rect id="XMLID_432_" width="147" height="79.5" x="617.9" y="517.9" fill="#A67648"/><rect id="XMLID_282_" width="13.3" height="93.8" x="611.2" y="506" fill="#FFC01A"/><rect id="XMLID_192_" width="160.3" height="13.3" x="611.2" y="590.8" fill="#FFC01A"/><rect id="XMLID_222_" width="13.3" height="93.8" x="758.2" y="506" fill="#FFC01A"/><path id="XMLID_245_" fill="#594FA3" d="M771.5,506v29.1c-2.1,1.8-4.3,3.7-6.7,5.6c-2.1,1.7-4.4,3.5-6.7,5.1 c-3.8,2.8-7.8,5.3-11.7,7.4l-18.3,30.1l-12-13.5l-24.8,27.6l-25.1-25.1l-7.9,9l-23.7-32c0,0-4.2-1-10.1-3.4 c-2.1-0.8-4.3-1.8-6.7-3c-2.2-1.1-4.4-2.3-6.7-3.8V506h13.3v11.9h133.6V506H771.5z" opacity=".2"/></g><path id="XMLID_434_" fill="#60372B" d="M791.1,471.2c-0.3,1.3-0.7,2.6-1.1,3.9c-9.8,33-29,52.9-47.9,64.8 c-13.5,8.5-26.8,13-36.2,15.3c-8.2,2-13.5,2.4-13.5,2.4c-19.5,0-36-5.6-49.6-13.7c-35.9-21.4-52.1-60.4-52.5-61.3c0,0,0,0,0,0 c-20.8-30,0-91.4,0-91.4l32.2-19.3l125.7-7.3c0,0,23.7,12.3,37.3,39.2C794.1,420.5,798.6,442.8,791.1,471.2z"/><path id="XMLID_250_" fill="#EFA66F" d="M780.4,448.8c0,36.9-22.1,68.7-53.9,82.8c-5.4,2.4-11.1,4.3-17,5.6 c-6.3,1.4-12.9,2.2-19.7,2.2c-50,0-90.5-40.5-90.5-90.5c0-6.4,0.7-12.7,2-18.7c0.7-3.5,1.7-7,2.8-10.4 c7.3-21.5,22.5-39.4,42.1-50.2c12.9-7.1,27.8-11.2,43.6-11.2c5.6,0,11.2,0.5,16.5,1.5C748.5,367.6,780.4,404.5,780.4,448.8z"/><path id="XMLID_184_" fill="#EA9E6A" d="M780.4,448.8c0,36.9-22.1,68.7-53.9,82.8c-5.4,2.4-11.1,4.3-17,5.6 c3.1-5.3,9.9-11.9,22.1-20.2c54.6-36.8,36.2-89.8,36.2-89.8c-48.2-1.6-80.4-38.4-80.4-38.4c-20.8,25.1-75.2,38.8-86.2,41.3 c0.7-3.5,1.7-7,2.8-10.4c7.3-21.5,22.5-39.4,42.1-50.2c12.9-7.1,27.8-11.2,43.6-11.2c5.6,0,11.2,0.5,16.5,1.5 C748.5,367.6,780.4,404.5,780.4,448.8z"/><g id="XMLID_226_"><g id="XMLID_232_"><ellipse id="XMLID_234_" cx="725.5" cy="439.1" fill="#60372B" rx="5.5" ry="7.1"/><path id="XMLID_233_" fill="none" stroke="#60372B" stroke-linecap="round" stroke-miterlimit="10" stroke-width="4" d="M720.1,421.9c5-1.7,10.6-10.2,14.1-6.2"/></g><g id="XMLID_227_"><ellipse id="XMLID_229_" cx="654.3" cy="439.1" fill="#60372B" rx="5.5" ry="7.1"/><path id="XMLID_228_" fill="none" stroke="#60372B" stroke-linecap="round" stroke-miterlimit="10" stroke-width="4" d="M659.8,421.9c-5-1.7-10.6-10.2-14.1-6.2"/></g></g><path id="XMLID_210_" fill="#60372B" d="M791.1,471.2c-4.6,5.2-8.4,7.1-8.7,7.2c6-14.5,3.4-34.6-0.4-50.5c-0.5-2.2-1.1-4.3-1.7-6.4 c-3.2-11.3-6.5-19.3-6.5-19.3c0.5,4,2.4,19.3,2.4,19.3c-69-12-89.1-44.8-89.1-44.8c-20.8,26.5-82.9,42.9-82.9,42.9 c-2.4-5.4,2.9-15.8,3.2-16.3c-4.6,5.7-7.7,12.7-9.9,20.1c-8.1,27.4-2.7,61.1-2.6,61.8c-0.2-0.1-1.9-0.8-4.4-2.7c0,0,0,0,0,0 c-5.2-3.9-14-12.7-19.7-31.1c-3.7-11.9-3.3-29.3,0.6-46.6c3.1-13.7,8.3-27.5,15.3-38.4c6.6-10.4,16.2-18.8,24.8-24.9 c10.7-7.7,19.9-11.8,19.9-11.8s1.8-0.4,5.1-1c16.2-3.1,68.1-11.7,108.6-5c8.2,1.3,17.1,7.5,17.1,7.5c7.7,4.1,15.3,11.1,22,19.6 c12.3,15.7,21.5,36.2,22.8,51.2c0.2,2.5,0.4,4.9,0.5,7.2C808.9,444.2,798.9,462.4,791.1,471.2z"/><path id="XMLID_208_" fill="#542D24" d="M589.2,457.5c0,0.2,1.3,25.2,1.3,25.2c0,0,0,0,0,0c-5.2-3.9-14-12.7-19.7-31.1 c-3.7-11.9-3.3-29.3,0.6-46.6c2.5,11.6,6.9,24.8,14.1,30l5,3.7C590.4,438.6,589.6,440.5,589.2,457.5z"/><path id="XMLID_243_" fill="#542D24" d="M784.1,350.9c-16.9-6.4-38.6,0.2-94.5,2.8c-62.4,2.8-76.5-7.9-78.2-12 c10.7-7.7,19.9-11.8,19.9-11.8s1.8-0.4,5.1-1c16.2-3.1,68.1-11.7,108.6-5c8.2,1.3,17.1,7.5,17.1,7.5 C769.9,335.3,777.5,342.4,784.1,350.9z"/><path id="XMLID_213_" fill="#F7B992" d="M586.3,439.7c1.5,0,2.9-0.4,4.1-1v-16c-1.2-0.6-2.6-1-4.1-1c-5,0-9,4-9,9 S581.3,439.7,586.3,439.7z"/><g id="XMLID_3_"><path id="XMLID_254_" fill="#EAE0D4" d="M778.3,286.1c0,23.4-6,42.3-74.5,42.3c-26.5,0-21.5-18.9-21.5-42.3c0-3.3,0.4-6.6,1.3-9.7 c5-18.7,24-32.7,46.7-32.7c15.9,0,30.1,6.8,38.8,17.4C774.9,268.1,778.3,276.7,778.3,286.1z"/><path id="XMLID_253_" fill="#CDC4B3" d="M778.3,286.1c0,23.4-6,42.3-74.5,42.3c-26.5,0-21.5-18.9-21.5-42.3c0-3.3,0.4-6.6,1.3-9.7 c5.4,11.2,16.5,21.4,38.2,25.3c43.7,7.9,48-23.9,47.4-40.6C774.9,268.1,778.3,276.7,778.3,286.1z"/><path id="XMLID_249_" fill="#EAE0D4" d="M669.1,328.4c-51.4,0-67.6-10.7-72.5-25.8v0c-1.6-5.1-2-10.6-2-16.5 c0-23.4,21.5-42.3,48-42.3c9.1,0,17.6,2.2,24.8,6.1c13.9,7.4,23.2,20.9,23.2,36.2C690.6,309.4,695.6,328.4,669.1,328.4z"/><path id="XMLID_187_" fill="#CDC4B3" d="M669.1,328.4c-51.4,0-67.6-10.7-72.5-25.8c9.3,7.9,23.2,13.6,43.8,9.2 c38.1-8.3,31.3-46.8,27-61.9c13.9,7.4,23.2,20.9,23.2,36.2C690.6,309.4,695.6,328.4,669.1,328.4z"/><path id="XMLID_251_" fill="#FFC01A" d="M754.9,322.1v20c-28.3,4.8-54,6.1-75.4,5.8c-37.7-0.5-61.6-5.8-61.6-5.8v-20h45 c7.5,0,13.5-6.1,13.5-13.5v-52.5h20v52.5c0,7.5,6.1,13.5,13.5,13.5H754.9z"/><path id="XMLID_237_" fill="#DC8C2D" d="M754.9,322.1v20c-28.3,4.8-54,6.1-75.4,5.8c10.8-33.6,11-80.1,9.2-91.9h7.6 v52.5c0,7.5,6.1,13.5,13.5,13.5H754.9z" opacity=".2"/><path id="XMLID_361_" fill="#FFC01A" d="M711.2,218.1c-0.2,17-4.3,34.8-16.9,49.3c-2.5,2.9-5.4,5.7-8.6,8.3c0,0-1.4-1.2-3.5-3.3 c-3.7-3.6-9.5-10.1-14-18.1c-1.1-2-2.1-4-3-6.2c-4.1-9.8-5.5-21.2,0.9-32.4c16.7-29.3,29.3-42.3,31.7-58.3c0,0,2.1,4.3,4.6,11.5 C706.2,180.2,711.4,198.7,711.2,218.1z"/><path id="XMLID_186_" fill="#DC8C2D" d="M711.2,218.1c-0.2,17-4.3,34.8-16.9,49.3c-2.5,2.9-5.4,5.7-8.6,8.3 c0,0-1.4-1.2-3.5-3.3c-3.7-3.6-9.5-10.1-14-18.1c6-4.5,14.2-9.1,23.1-9.3C698.1,245,705.2,232.8,711.2,218.1z" opacity=".2"/><path id="XMLID_247_" fill="#DC8C2D" d="M694.3,267.4c-2.5,2.9-5.4,5.7-8.6,8.3c0,0-1.4-1.2-3.5-3.3c5-15,18.3-58.1,13.9-85.6 C696.4,188.4,706.7,227,694.3,267.4z"/><path id="XMLID_264_" fill="#D94334" d="M700.8,272.8c0,7.9-6.4,14.4-14.4,14.4c-3.4,0-6.6-1.2-9.1-3.2c-3.2-2.6-5.3-6.7-5.3-11.1 c0-7.9,6.4-14.4,14.4-14.4c3.4,0,6.6,1.2,9.1,3.2C698.7,264.3,700.8,268.3,700.8,272.8z"/><path id="XMLID_252_" fill="#594FA3" d="M700.8,272.8c0,7.9-6.4,14.4-14.4,14.4c-3.4,0-6.6-1.2-9.1-3.2 c15-2.8,17.8-15.5,18.2-22.3C698.7,264.3,700.8,268.3,700.8,272.8z" opacity=".2"/></g><polygon id="XMLID_426_" fill="#60372B" points="742.2 539.9 725.4 568.3 716.3 557.6 691.4 583.3 666.5 557.6 657.4 568.3 642.9 543.9 640.6 539.9 675.7 545.4 691.4 547.8 704.9 545.7 725.9 542.5 742.2 539.9"/><path id="XMLID_428_" fill="#60372B" d="M745.2,529.5v6.2l-45.9,15.9c0,0,0,0,0,0l-4.7,1.6l-57.1-23.7c0-2.2,0.2-4.4,0.4-6.6 c3.2-23.8,23.6-42.2,48.3-42.2h10.1c24,0,44,17.4,48,40.3C745,523.8,745.2,526.6,745.2,529.5z"/><path id="XMLID_260_" fill="#542D24" d="M791.1,471.2c-0.3,1.3-0.7,2.6-1.1,3.9c-9.8,33-29,52.9-47.9,64.8l0,0l-16.8,28.4 l-9.1-10.7l-24.9,25.7l14.6-28.1l1.9-3.7l-8.6,0.1c0,0,0,0,0,0c0,0,0,0,0,0c0.2-0.2,2.6-2.3,5.6-5.9c1.9-2.4,4.1-5.4,6.1-8.9 c7.4-13.3,11.5-33.7-13.3-53.8c-1-0.8-1.9-1.6-2.7-2.3h1.5c24,0,44,17.4,48,40.3c21.8-16.5,35.9-42.7,35.9-72.2 c0-9.5-1.5-18.6-4.2-27.2h7.9c0,0,2.5-9.3,1.5-17.8c-0.3-2.2-0.7-4.4-1.5-6.4c0,0,14,13.1,13,28.9c0,0,5.9-5.4,10.2-17 C808.9,444.2,798.9,462.4,791.1,471.2z"/><path id="XMLID_204_" fill="#EA8053" d="M695.2,488.6h-7.6c-8.3,0-14.3-9-12.4-18.3l3.8-18.1c1.4-6.6,6.5-11.3,12.4-11.3h0 c5.9,0,11,4.7,12.4,11.3l3.8,18.1C709.5,479.7,703.4,488.6,695.2,488.6z"/><path id="XMLID_218_" fill="#F7B992" d="M792,421.6c-1.5,0-2.9,0.4-4.1,1v16c1.2,0.6,2.6,1,4.1,1c5,0,9-4,9-9S797,421.6,792,421.6z"/><path id="XMLID_25_" fill="#724338" d="M681.9,366.7c0,0-30.3,30.6-72.3,41.7c0,0,14.3-10.4,20.1-20.9h-10.3 c0,0,28.8-11.1,38.5-25.2c0,0,2.3,10.4-5.2,15.9C652.7,378.3,664,377.3,681.9,366.7z"/><path id="XMLID_161_" fill="#594FA3" d="M811.4,660c-13.4,15.4-33.1,23.8-53.5,23.8h-26.1v-13.3 c77.3,6,93.2-55.4,93.2-55.4C826.9,630.5,823.6,646,811.4,660z" opacity=".2"/><path id="XMLID_154_" fill="#594FA3" d="M652.4,667.1v16.8h-26.1c-20.4,0-40.1-8.5-53.5-23.8 c-3.1-3.6-5.7-7.3-7.7-11C595.4,672.1,637.1,669.1,652.4,667.1z" opacity=".2"/><path id="XMLID_171_" fill="#594FA3" d="M712.6,636c0,1.3-0.1,2.6-0.3,3.8H705c1.4-17.4-14-24.2-17.5-25.4 c1-0.2,2.1-0.2,3.2-0.2C702.8,614.2,712.6,624,712.6,636z" opacity=".2"/></g><g id="XMLID_132_"><path id="XMLID_352_" fill="#DC8C2D" d="M941.2,358.3h28.3l-15.1-49.9c-0.6-2-3.5-2.1-4.1,0l-9.1,29.1V358.3z"/><path id="XMLID_405_" fill="#D94334" d="M1154.6,799.7c0.1,5.6-4.5,10.2-10.1,10.2h-29.9c-3,0-5.5,2.5-5.5,5.5c0,3-2.5,5.5-5.5,5.5 H950.6c-3,0-5.5-2.5-5.5-5.5c0-3-2.5-5.5-5.5-5.5h-29.9c-5.6,0-10.2-4.6-10.1-10.2c0.8-75.1,9.8-159.8,15.7-207.8 c3-23.9,5.1-38.7,5.1-38.7l106.7,12.2l106.7-12.2c0,0,2.4,16.3,5.6,42.4C1145.3,644.2,1153.9,726.6,1154.6,799.7z"/><rect id="XMLID_389_" width="139.7" height="221.1" x="957.6" y="599.8" fill="#594FA3" opacity=".2"/><path id="XMLID_112_" fill="#DC8C2D" d="M978.6,350.8h32.6l-17.4-57.5c-0.7-2.4-4-2.4-4.8,0l-10.5,33.5V350.8z"/><path id="XMLID_160_" fill="#DC8C2D" d="M1104.3,358.3h-28.3l15.1-49.9c0.6-2,3.5-2.1,4.1,0l9.1,29.1V358.3z"/><path id="XMLID_157_" fill="#DC8C2D" d="M1068.9,350.8h-32.6l17.4-57.5c0.7-2.4,4-2.4,4.8,0l10.5,33.5V350.8z"/><path id="XMLID_358_" fill="#F9C9AF" d="M1125.7,425.7c-1.5,0-2.9,0.4-4.1,1v16c1.2,0.6,2.6,1,4.1,1c5,0,9-4,9-9 S1130.7,425.7,1125.7,425.7z"/><path id="XMLID_353_" fill="#F9C9AF" d="M920,446.1c1.5,0,2.9-0.4,4.1-1v-16c-1.2-0.6-2.6-1-4.1-1c-5,0-9,4-9,9 S915,446.1,920,446.1z"/><g id="XMLID_409_"><rect id="XMLID_420_" width="14.6" height="44.8" x="978.6" y="762.3" fill="#594FA3"/><rect id="XMLID_417_" width="68" height="14.6" x="992.5" y="762.3" fill="#594FA3"/><path id="XMLID_416_" fill="#A67648" d="M994.9,793.8l-1.4,27.1l-0.3,5.1h-41.4v-3c0-0.7,0-1.4,0.1-2.1c1-7.8,7.7-13.9,15.9-13.9 h8.3l-1.4-13.3H994.9z"/><path id="XMLID_415_" fill="#EAE0D4" d="M993.5,820.9l-0.3,5.1h-41.4v-3c0-0.7,0-1.4,0.1-2.1H993.5z"/><rect id="XMLID_412_" width="14.6" height="44.8" x="1060.4" y="762.3" fill="#594FA3"/><path id="XMLID_411_" fill="#A67648" d="M1058.7,793.8l1.4,27.1l0.3,5.1h41.4v-3c0-0.7,0-1.4-0.1-2.1c-1-7.8-7.7-13.9-15.9-13.9 h-8.3l1.4-13.3H1058.7z"/><path id="XMLID_410_" fill="#EAE0D4" d="M1060.1,820.9l0.3,5.1h41.4v-3c0-0.7,0-1.4-0.1-2.1H1060.1z"/></g><rect id="XMLID_452_" width="110.2" height="204.7" x="968.4" y="557.7" fill="#594FA3"/><g id="XMLID_386_"><path id="XMLID_449_" fill="#FFC01A" d="M1140.8,774.3h-82V521.8h41.7c0,0,3.3,5.5,7.9,17.9c6.9,18.5,17,52.3,24,105.8 c0.4,2.9,0.8,5.8,1.1,8.8c1.2,10.3,2.4,21.3,3.4,33c0.4,5.2,0.8,10.5,1.2,16c0.2,2.3,0.3,4.7,0.5,7c0.2,2.9,0.3,5.9,0.5,9 c0.8,14.6,1.3,30,1.6,46.5C1140.7,768.6,1140.7,771.5,1140.8,774.3z"/><g id="XMLID_390_"><rect id="XMLID_391_" width="17.1" height="224" x="1053.8" y="557.7" fill="#EAE0D4"/></g></g><g id="XMLID_397_"><path id="XMLID_442_" fill="#FFC01A" d="M992.5,521.8v252.5h-82c0.2-19.7,0.8-38,1.7-55c0.2-3,0.3-6,0.5-9c0.2-2.4,0.3-4.7,0.5-7 c0.4-5.5,0.8-10.8,1.2-16c0.3-3.3,0.6-6.5,0.9-9.6c5.9-63,16.2-104.1,24.2-128.2c6.4-19.4,11.4-27.8,11.4-27.8H992.5z"/><g id="XMLID_399_"><rect id="XMLID_400_" width="17.1" height="224" x="980.4" y="557.7" fill="#EAE0D4"/></g><path id="XMLID_436_" fill="#594FA3" d="M1139.4,595.7c-4.3,1.9-9.1,3.3-14.5,4.1c-36.3,5.5-40.2,13-57.1,27.2 c-17,14.2-41.2-12.8-41.2-12.8s-14.3,16.2-35.5,17.9s-27.3-25.7-46.7-28.3c-10.7-1.4-21.4-7-29-11.7c3-23.9,5.1-38.7,5.1-38.7 l106.7,12.2l106.7-12.2C1133.8,553.3,1136.2,569.6,1139.4,595.7z" opacity=".2"/></g><path id="XMLID_104_" fill="#EAE0D4" d="M936.9,511.6c0,0-51.4,34.1-29.4,59.4c22,25.3,70.8,23,77.3,43.2s34.1-2.9,27.4-29.4 C1005.5,558.3,936.9,511.6,936.9,511.6z"/><path id="XMLID_267_" fill="#EAE0D4" d="M1111.9,511.6c0,0,51.5,34.1,29.5,59.4c-22,25.3-70.8,23-77.3,43.2s-34.1-2.9-27.4-29.4 C1043.4,558.3,1111.9,511.6,1111.9,511.6z"/><path id="XMLID_244_" fill="#D94334" d="M1132.4,529.1c0,0-70.5,38.5-76.9,68.4c-6.3,29.9-33.8,1.9-16.8-25.1s56-76.9,56-76.9 S1138.4,505.5,1132.4,529.1z"/><path id="XMLID_330_" fill="#D94334" d="M915.9,529.1c0,0,70.5,38.5,76.9,68.4s33.8,1.9,16.8-25.1s-56-76.9-56-76.9 S909.8,505.5,915.9,529.1z"/><path id="XMLID_424_" fill="#EAE0D4" d="M1125.1,448.8c0,1.6,0,3.1-0.1,4.7c-0.2,5.2-0.9,10.3-1.9,15.3 c-2.1,39.1-21.6,63.6-31.6,73.7c-2.4,2.4-6.3,2.3-8.5-0.3c-0.2-0.3-0.4-0.4-0.4-0.4c-6.3,16-15.4,28.5-24.1,37.6 c-6.7,7.1-15.2,11.5-24,13.1c-13.4,2.5-27.8-1.1-38.4-11.2c-16-15.2-24-34-24-34c0,3.4-2.8,5.9-5.9,5.9c-1.1,0-2.2-0.3-3.2-1 c-39-26-39.4-83.4-39.4-85.9c0-0.1,0-0.1,0-0.1c-1.1-6.3-1.6-12.9-1.5-19.6c0.3-15.8,4.4-30.8,11.2-44.1 c10.4-20,27.2-36.2,47.7-45.8c11.6-5.4,24.4-8.7,37.9-9.3c20.1-0.9,39,4.1,55.1,13.3c16.6,9.5,30.2,23.6,39.2,40.5 c3.5,6.7,6.4,13.8,8.4,21.3C1123.9,430.9,1125.1,439.7,1125.1,448.8z"/><path id="XMLID_163_" fill="#CDC4B3" d="M1113.3,401.2c-76.7,28.4-163.6,5.9-179.9,1.2c10.4-20,27.2-36.2,47.7-45.8l93,4 C1090.7,370.2,1104.3,384.3,1113.3,401.2z"/><path id="XMLID_376_" fill="#F9C9AF" d="M1114.1,448.8c0,36.9-22.1,68.7-53.9,82.8c-11.2,5-23.6,7.7-36.6,7.7 c-50,0-90.5-40.5-90.5-90.5c0-10.2,1.7-20,4.8-29.1c1.7-5,3.8-9.8,6.3-14.3c8.3-15.1,20.7-27.6,35.8-35.8 c12-6.6,25.7-10.6,40.2-11.1c1.1-0.1,2.3-0.1,3.4-0.1c3.8,0,7.6,0.2,11.3,0.7c1.8,0.2,3.5,0.5,5.2,0.8c26.9,5,49.7,21.9,62.6,45 C1110,417.9,1114.1,432.9,1114.1,448.8z"/><path id="XMLID_336_" fill="#F4BEA6" d="M1102.8,404.8c-63,19.5-130.3,7.3-158.5,0.5c8.3-15.1,20.7-27.6,35.8-35.8 c12-6.6,25.7-10.6,40.2-11.1l14.7,0.6c1.8,0.2,3.5,0.5,5.2,0.8C1067.1,364.8,1089.8,381.7,1102.8,404.8z"/><path id="XMLID_262_" fill="#F4BEA6" d="M980.4,491.1c0,0,45.1-31.8,91.8,2.8s-57.8,32.5-57.8,32.5l-49.2-17.1"/><g id="XMLID_366_"><g id="XMLID_372_"><ellipse id="XMLID_374_" cx="1059.3" cy="439.1" fill="#A67648" rx="5.5" ry="7.1"/><path id="XMLID_373_" fill="none" stroke="#EAE0D4" stroke-linecap="round" stroke-linejoin="round" stroke-miterlimit="10" stroke-width="3" d="M1053.8,421.9c5-1.7,10.6-0.2,14.1,3.8"/></g><g id="XMLID_367_"><ellipse id="XMLID_369_" cx="988" cy="439.1" fill="#A67648" rx="5.5" ry="7.1"/><path id="XMLID_368_" fill="none" stroke="#EAE0D4" stroke-linecap="round" stroke-linejoin="round" stroke-miterlimit="10" stroke-width="3" d="M993.5,421.9c-5-1.7-10.6-0.2-14.1,3.8"/></g></g><path id="XMLID_326_" fill="#EAE0D4" d="M913,765.8h84.4v15.8H913c-4.4,0-7.9-3.5-7.9-7.9v0C905.1,769.4,908.7,765.8,913,765.8z"/><path id="XMLID_325_" fill="#EAE0D4" d="M1146.1,773.7L1146.1,773.7c0,4.4-3.5,7.9-7.9,7.9h-84.4v-15.8h84.4 C1142.5,765.8,1146.1,769.4,1146.1,773.7z"/><g id="XMLID_283_"><rect id="XMLID_322_" width="72.3" height="32" x="989.6" y="655.3" fill="#D94334"/><rect id="XMLID_321_" width="72.3" height="4.3" x="989.6" y="655.3" fill="#594FA3" opacity=".2"/><path id="XMLID_312_" fill="#FFC01A" d="M990.9,644.1c0,0-0.2-5.5,5-4.5c0,0,1-8.5,10.2-8.5c0,0,6.3-6.5,12.5,0c0,0,5.1-2,8.4,2.5 c0,0,2.6-6.5,10.8-4.3s11.3,6.8,11.3,6.8s9.6-4.6,9.6,7.9C1058.7,656.6,990.9,644.1,990.9,644.1z"/><rect id="XMLID_311_" width="76.9" height="12.3" x="987.3" y="643" fill="#D94334"/><g id="XMLID_284_"><g id="XMLID_298_"><path id="XMLID_308_" fill="#F7B992" d="M1058.4,657.7h6.7c1.2,0,2.3-1,2.3-2.3v-5c0-1.2-1-2.3-2.3-2.3h-6.7 c-2.6,0-4.8,2.1-4.8,4.8l0,0C1053.7,655.5,1055.8,657.7,1058.4,657.7z"/><path id="XMLID_305_" fill="#F7B992" d="M1056.2,666.1h6.7c1.2,0,2.3-1,2.3-2.3v-5c0-1.2-1-2.3-2.3-2.3h-6.7 c-2.6,0-4.8,2.1-4.8,4.8l0,0C1051.5,664,1053.6,666.1,1056.2,666.1z"/><path id="XMLID_302_" fill="#F7B992" d="M1057.1,674.2h6c1.1,0,2-0.9,2-2v-4.5c0-1.1-0.9-2-2-2h-6c-2.4,0-4.3,1.9-4.3,4.3l0,0 C1052.8,672.3,1054.7,674.2,1057.1,674.2z"/><path id="XMLID_299_" fill="#F7B992" d="M1059,681h4.9c0.9,0,1.7-0.7,1.7-1.7v-3.7c0-0.9-0.7-1.7-1.7-1.7h-4.9 c-1.9,0-3.5,1.6-3.5,3.5l0,0C1055.5,679.4,1057.1,681,1059,681z"/></g><g id="XMLID_285_"><path id="XMLID_295_" fill="#F7B992" d="M993,657.7h-6.7c-1.2,0-2.3-1-2.3-2.3v-5c0-1.2,1-2.3,2.3-2.3h6.7 c2.6,0,4.8,2.1,4.8,4.8l0,0C997.8,655.5,995.7,657.7,993,657.7z"/><path id="XMLID_292_" fill="#F7B992" d="M995.3,666.1h-6.7c-1.2,0-2.3-1-2.3-2.3v-5c0-1.2,1-2.3,2.3-2.3h6.7 c2.6,0,4.8,2.1,4.8,4.8l0,0C1000,664,997.9,666.1,995.3,666.1z"/><path id="XMLID_289_" fill="#F7B992" d="M994.4,674.2h-6c-1.1,0-2-0.9-2-2v-4.5c0-1.1,0.9-2,2-2h6c2.4,0,4.3,1.9,4.3,4.3l0,0 C998.7,672.3,996.8,674.2,994.4,674.2z"/><path id="XMLID_286_" fill="#F7B992" d="M992.5,681h-4.9c-0.9,0-1.7-0.7-1.7-1.7v-3.7c0-0.9,0.7-1.7,1.7-1.7h4.9 c1.9,0,3.5,1.6,3.5,3.5l0,0C996,679.4,994.4,681,992.5,681z"/></g></g></g><g id="XMLID_103_"><path id="XMLID_29_" fill="#EAE0D4" d="M936.9,474.7c0,0,8.1-8.9,16.4,12.9c0,0,29.6-16.7,42.2,15.9c0,0,5.6-17.5,28.2-17.5v57.8 C1023.6,543.7,946.8,542.4,936.9,474.7z"/><path id="XMLID_379_" fill="#EAE0D4" d="M1110.2,475.5c-8.3,56.7-62.2,67.1-80.8,68.1h0c-3.6,0.2-5.7,0.1-5.7,0.1V486 c5.4,0,9.8,1,13.4,2.5c11.5,4.8,14.7,15,14.7,15c12.6-32.5,42.2-15.8,42.2-15.8C1102.3,465.8,1110.2,475.5,1110.2,475.5z"/></g><path id="XMLID_344_" fill="#F0A176" d="M1028.9,495.4h-7.6c-8.3,0-14.3-9-12.4-18.3l3.8-18.1c1.4-6.6,6.5-11.3,12.4-11.3l0,0 c5.9,0,11,4.7,12.4,11.3l3.8,18.1C1043.2,486.4,1037.2,495.4,1028.9,495.4z"/><path id="XMLID_349_" fill="#FFC01A" d="M1112.8,318.3v77.1c0,1.2-0.8,2.3-2,2.5c-31.9,6.6-61.4,9.1-87.1,9.4 c-16.4-0.2-34.5-1.3-53.7-3.8c-4.1-0.5-8.3-1.1-12.6-1.8c-6.8-1.1-13.7-2.3-20.8-3.8c-1.2-0.3-2-1.3-2-2.5v-77.1 c0-3,3.4-4.2,5.4-2.6c0.4,0.3,0.8,0.8,1,1.3l12,28.1c1,2.3,4.3,2,4.8-0.5l9.5-46.9c0.7-3.5,5.7-3.6,6.5-0.1l11.6,48.7 c0.6,2.4,3.9,2.7,4.8,0.4l30.5-76.5c1.1-2.8,5-2.8,6.2,0c0,0,0,0,0,0l30.5,76.5c0.9,2.3,4.3,2.1,4.8-0.4l11.6-48.7 c0.8-3.5,5.8-3.4,6.5,0.1l9.5,46.9c0.5,2.5,3.8,2.8,4.8,0.5l12-28.1C1107.8,313.6,1112.8,314.6,1112.8,318.3z"/><path id="XMLID_343_" fill="#DC8C2D" d="M1112.8,318.3v77.1c0,1.2-0.8,2.3-2,2.5c-31.9,6.6-61.4,9.1-87.1,9.4 c-16.4-0.2-34.5-1.3-53.7-3.8c60.2-47.1,60.9-105.3,56.8-133.4c0,0,0,0,0,0l30.5,76.5c0.9,2.3,4.3,2.1,4.8-0.4l11.6-48.7 c0.8-3.5,5.8-3.4,6.5,0.1l9.5,46.9c0.5,2.5,3.8,2.8,4.8,0.5l12-28.1C1107.8,313.6,1112.8,314.6,1112.8,318.3z" opacity=".2"/><ellipse id="XMLID_156_" cx="1023" cy="355.3" fill="#DC8C2D" opacity=".2" rx="13.3" ry="22.7"/><g id="XMLID_265_"><path id="XMLID_335_" fill="#DC8C2D" d="M1112.8,379.8v4.2c-28.2,9.2-58,12.1-84.3,12.1c-13.5,0-26.1-0.8-37.1-1.8 c-25.3-2.5-46-6.8-56.8-9.4v-4.1C959.1,386.7,1042,403.4,1112.8,379.8z"/></g><ellipse id="XMLID_108_" cx="1023" cy="355.3" fill="#D94334" rx="8.7" ry="17.7"/><path id="XMLID_339_" fill="#FFD788" d="M957.3,401.7c-6.8-1.1-13.7-2.3-20.8-3.8c-1.2-0.3-2-1.3-2-2.5v-77.1 c0-3,3.4-4.2,5.4-2.6C941,333.3,944.9,374.3,957.3,401.7z" opacity=".5"/><path id="XMLID_382_" fill="#CDC4B3" d="M1125.1,448.8c0,1.6,0,3.1-0.1,4.7c-0.2,5.2-0.9,10.3-1.9,15.3 c-2.1,39.1-21.6,63.6-31.6,73.7c-2.4,2.4-6.3,2.3-8.5-0.3c-0.2-0.3-0.4-0.4-0.4-0.4c-6.3,16-15.4,28.5-24.1,37.6 c-6.7,7.1-15.2,11.5-24,13.1c-13.4,2.5-27.8-1.1-38.4-11.2c-16-15.2-24-34-24-34c0,3.4-2.8,5.9-5.9,5.9c-1.1,0-2.2-0.3-3.2-1 c-39-26-39.4-83.4-39.4-85.9c0-0.1,0-0.1,0-0.1c-1.1-6.3-1.6-12.9-1.5-19.6c0.1-3.3,0.3-6.7,0.7-9.9c0.2,1.8,0.5,3.6,0.8,5.3 c0,0,0,0,0,0.1c0,2.5,0.4,59.9,39.4,85.9c1,0.7,2.1,1,3.2,1c3,0,5.9-2.5,5.9-5.9c0,0,8,18.9,24,34c10.6,10.1,25,13.8,38.4,11.2 c8.9-1.7,17.4-6.1,24-13.1c8.7-9.2,17.7-21.6,24.1-37.6c0,0,0.2,0.2,0.4,0.4c2.3,2.5,6.1,2.6,8.5,0.3c10-10.1,29.6-34.5,31.6-73.7 c0.5-2.6,0.9-5.3,1.3-7.9C1124.9,440.7,1125.1,444.7,1125.1,448.8z"/><path id="XMLID_314_" fill="#D94334" d="M1039.1,626.8h7.3c1.2,0,2.2,1,2.2,2.2v0.7c0,0.4-0.1,0.8-0.3,1.2l-3.4,5.6 c-0.9,1.4-2.9,1.4-3.8,0l-3.9-6.3c-0.2-0.3-0.3-0.7-0.3-1.1l0,0C1036.9,627.8,1037.9,626.8,1039.1,626.8z"/><circle id="XMLID_313_" cx="1015.3" cy="635.1" r="2.9" fill="#D94334"/><path id="XMLID_328_" fill="#EAE0D4" d="M1138.1,703.3h-50.9v-16h49.7C1137.3,692.5,1137.7,697.8,1138.1,703.3z"/><path id="XMLID_331_" fill="#EAE0D4" d="M1139.1,719.3h-51.9v-9h51.4C1138.7,713.3,1138.9,716.3,1139.1,719.3z"/><path id="XMLID_388_" fill="#EAE0D4" d="M962.8,687.3v16h-49.7c0.4-5.5,0.8-10.8,1.2-16H962.8z"/><path id="XMLID_394_" fill="#EAE0D4" d="M962.8,710.4v9h-50.7c0.2-3,0.3-6,0.5-9H962.8z"/></g><path id="XMLID_30_" fill="#EEB765" d="M583.8,793.8"/><text id="XMLID_512_" transform="matrix(1 0 0 1 538.0211 118.9939)"><tspan x="0" y="0" fill="#7C5840" font-family="'Roboto-Thin'" font-size="26.87" letter-spacing="5">- hap</tspan><tspan x="87.5" y="0" fill="#7C5840" font-family="'Roboto-Thin'" font-size="26.87" letter-spacing="5">p</tspan><tspan x="107.4" y="0" fill="#7C5840" font-family="'Roboto-Thin'" font-size="26.87" letter-spacing="5">y epiphany -</tspan></text></svg>